<svg xmlns="http://www.w3.org/2000/svg" xmlns:xlink="http://www.w3.org/1999/xlink" viewBox="0 0 1268.2 766.84"><style><![CDATA[.B{fill:#dad9d9}.C{fill:#fff}.D{fill:#fbe2c3}.E{fill:#f0d065}.F{fill:#7f7f7f}.G{fill:#e7b821}.H{fill:#67c293}.I{fill-rule:evenodd}.J{fill:#625f6d}.K{fill:#b5b3bd}.L{fill:#cac9d0}.M{fill:#63c9d7}.N{fill:#dc653d}.O{fill:#772f17}.P{stroke-linejoin:round}.Q{stroke-miterlimit:10}]]></style><g class="I"><path d="M827.87 447.18l57.44-19.62-101.25 300.87-17.38 10.12 61.2-291.37M680 360.06l57.46-19.62-101.3 301-17.34 10.12L680 360.06" class="B"/><path fill="#2d999b" d="M708.2 163.88l-11.47-6.8 7.12-9.85 4.35 2.6v14.03"/><path fill="#24714c" d="M693.24 250.53l-84.98 57.94c-2.4 1.44-5.38-.27-5.38-3.07v-95.1c0-3.8 2-7.36 5.33-9.3l92.08-53.8c2.4-1.4 5.38.32 5.38 3.07l-7.1 90.95a10.79 10.79 0 0 1-5.33 9.31"/><path fill="#34a870" d="M704.42 257.37l-91.97 53.8c-2.35 1.4-5.37-.27-5.37-3.07v-95.1c0-3.84 2.03-7.4 5.33-9.35l91.97-53.8c2.4-1.4 5.37.32 5.37 3.07v95.15a10.79 10.79 0 0 1-5.33 9.31"/><path d="M698.58 219.5l-76.72 44.23c-1.04.6-2.3-.14-2.3-1.27v-2.26a3.8 3.8 0 0 1 1.85-3.26l76.23-43.9c1.04-.63 2.4.14 2.4 1.36v2.58c0 1.08-.54 2-1.45 2.53" class="E"/><path fill="#ec9f55" d="M698.58 233.24l-76.72 44.3c-1.04.6-2.3-.14-2.3-1.3V274c0-1.36.72-2.58 1.85-3.3l76.23-43.93c1.04-.68 2.4.14 2.4 1.36v2.58c0 1.04-.54 2-1.45 2.54"/><use xlink:href="#B" class="H"/><path fill="#a6a5a5" d="M1219.68 248.04v21.15c0 6.24-3.34 11.93-8.68 15L850.2 499.46c-6.96 3.98-15.5 3.84-22.37-.27l-9.7-5.48-51.44 244.65-9.26-5.56 50.64-244.78-138.4-78.24-50.78 241.7-9.3-5.56 50.03-241.83-7-3.96c-5.2-3.07-8.36-8.72-8.36-14.78v-17.17l20.44 11.37 5-24.12 10.4 4.83-5.24 24.94 138.56 77.1 4.13-19.98 10.4 4.83-4.37 20.8 15.4 8.57 380.73-228.46z"/><path d="M852.36 478.05l367.5-224.6v15.1c0 6.55-3.52 12.65-9.22 15.9L853.4 497.57c0 .05-.05.05-.1.1h0c-4.25 2.58-9.72-.5-9.72-5.47V486c0-5.92 3.2-4.8 8.3-7.73l.46-.22" class="B"/><path fill="#737573" d="M860.9 455.78l368.34-220.34v12.34c0 3.16-1.67 6.06-4.43 7.6L852.36 478.25c-5.3 3.03-11.84 2.94-17.08-.27l-190.84-106.3c-2.08-1.27-3.34-3.53-3.4-5.97l-.05-5.38c-.1-4.88 1.45-9.63 4.3-13.56l180.98 108.6c10.63 6.38 23.87 6.56 34.63.4"/><path d="M1027.4 114.97l197.97 113.96c5.06 2.98 4.97 10.35-.14 13.24L855.77 463.94c-5.87 3.3-13.1 3.2-18.84-.27L647.13 358.2c-5.02-3.03-4.97-10.3.14-13.2l372.4-230.08c2.4-1.4 5.38-1.35 7.73.05" class="B"/><path d="M1028.9 117.92l191.96 110.76c5.02 2.94 4.93 10.2-.1 13.06L856.22 460.46c-5.78 3.3-12.92 3.2-18.62-.23L653.7 357.88c-4.97-2.98-4.88-10.17.14-13.06l367.43-226.94c2.4-1.36 5.33-1.36 7.63.04" class="C"/><path d="M940.47 198.24l-197.55 116.1 139.18 81.15 197.73-116.4-139.36-80.83" class="B"/><path d="M751.68 305.22v7.2l133 77.9 190.36-112.45v-7.14l-323.35 34.5" class="J"/><path d="M884.64 383.17v7.14l190.4-112.45v-7.14l-190.4 112.45" class="K"/><path fill="#9492a0" d="M941.86 193.08L751.68 305.22l133 77.9 190.36-112.36-133.17-77.67"/><path d="M944.27 203.16L768.6 306.72l70.62 41.36 175.8-103.83-70.76-41.1m16.88 78.97L895.8 320.7l42.64 24.97 65.43-38.62-42.73-24.93" class="K"/><path d="M941.3 309.36l-.85.45 29.33 17.26.86-.54-29.34-17.17" class="J"/><path d="M936.46 0L942 3.35v30.67l-5.53-2.27L936.46 0zm-.04 0v189.87L746.16 301.8V111.93L936.42 0z" class="L"/><path d="M751.63 115.06V305l-5.47-3.35V111.72l5.47 3.34" class="J"/><path fill="#313037" d="M941.95 3.12v189.92L751.68 305V115.07L941.95 3.12"/><path d="M936.96 191.7L761 294.08c-2.17 1.3-4.88-.27-4.88-2.76V128.8a3.21 3.21 0 0 1 1.63-2.8L933.7 23.1c2.12-1.27 4.88.27 4.88 2.8v162.98c0 1.14-.63 2.23-1.63 2.8" class="C"/><path d="M798.65 115.17c1.27.02 2.44 1.03 2.44 2.42v10.05c0 .86-.45 1.68-1.22 2.13l-26.04 15.17c-1.85 1.1-4.16-.27-4.16-2.35v-9.24c0-1 .54-1.9 1.4-2.4l26.3-15.44c.4-.24.85-.35 1.27-.34h0zm36.68-21.53c1.25 0 2.4 1.02 2.4 2.44v10.15c0 .8-.45 1.62-1.17 2.08l-28.2 16.42a2.43 2.43 0 0 1-3.65-2.08V112.6a2.45 2.45 0 0 1 1.22-2.12L834.08 94a2.34 2.34 0 0 1 1.25-.36h0zm47.02-27.4c1.13.02 2.17.95 2.17 2.2V78.9c0 1.04-.6 2-1.5 2.5l-37.44 21.9c-1.44.86-3.24-.18-3.24-1.85V91.06c0-1.04.54-2 1.44-2.53l37.44-22c.36-.2.74-.3 1.12-.3h0z" class="M"/><path d="M923.43 79.4l-149.6 87c-1.85 1.08-4.16-.23-4.16-2.35v-9.2c0-1 .54-1.9 1.4-2.4l149.6-87.4c1.8-1.08 4.1.23 4.1 2.35V77c.01 1-.53 1.9-1.35 2.4" class="H"/><path d="M923.43 101.12l-149.6 87c-1.85 1.08-4.16-.23-4.16-2.35v-9.2c0-1 .54-1.9 1.4-2.4l149.6-87.4c1.8-1.08 4.1.23 4.1 2.4v9.57c.01 1-.53 1.9-1.35 2.4" class="E"/><path fill="#ec9f55" d="M808.06 174.6c1.37.03 2.6 1.12 2.6 2.64V186a4.03 4.03 0 0 1-1.99 3.47l-34.86 20.3c-1.85 1.04-4.15-.27-4.15-2.4v-9.2c0-1 .54-1.9 1.4-2.4l35.62-20.83a2.78 2.78 0 0 1 1.37-.34h0zm114.07-66.73c1.4.01 2.7 1.16 2.7 2.78v9.63c0 .95-.54 1.85-1.36 2.35l-105.22 61.3c-1.67.95-3.75-.27-3.75-2.2v-9a4.08 4.08 0 0 1 2.03-3.53l104.18-60.93c.45-.27.94-.4 1.4-.4h0z"/><path d="M923.43 144.32l-149.6 87.04c-1.85 1.04-4.16-.27-4.16-2.4v-9.2c0-1 .54-1.9 1.4-2.4l149.6-87.4c1.8-1.08 4.1.27 4.1 2.4v9.62c.01.94-.53 1.84-1.35 2.34" class="N"/><path d="M886.08 171.4c.86-.5 1.9.14 1.9 1.1v11.3c0 1.5-.77 2.85-2.08 3.62l-112.07 65.54c-1.85 1.04-4.16-.27-4.16-2.4v-9.23c0-1 .54-1.9 1.4-2.4l115-67.53zm36.04-20.33c1.4.02 2.7 1.18 2.7 2.77v9.6c0 1-.54 1.9-1.36 2.34l-29.03 16.86c-1.36.77-3.03-.18-3.03-1.7v-10c0-1.5.86-2.9 2.13-3.6l27.18-15.87c.45-.26.93-.38 1.4-.37h0z" class="L"/><path d="M923.43 187.4l-149.6 87.04c-1.85 1.04-4.16-.27-4.16-2.4v-9.2c0-.95.54-1.85 1.4-2.4l149.6-87.4c1.8-1.08 4.1.27 4.1 2.4v9.62c.01.98-.53 1.9-1.35 2.34" class="M"/><path d="M846.67 63.76h0c.65-.4 1.2.22 1.2 1.36h0c0 1.14-.55 2.33-1.2 2.72h0c-.65.4-1.15-.22-1.15-1.36h0c0-1.1.5-2.33 1.15-2.72" class="L"/><path fill="#313037" d="M838.94 333.4c.4-.01.8.08 1.13.26l5.98 3.4c.85.5.8 1.72 0 2.2l-6.43 3.7c-.67.45-1.57.45-2.3.1l-5.85-3.34c-.85-.5-.8-1.72 0-2.2l6.3-3.75c.35-.23.76-.34 1.16-.35h0zm13.33-7.75a2.25 2.25 0 0 1 1.15.28l5.98 3.3c.85.5.8 1.7-.05 2.15l-6.4 3.8c-.72.4-1.62.45-2.3 0l-5.85-3.3c-.85-.5-.8-1.66 0-2.2l6.3-3.7c.36-.2.75-.32 1.15-.33h0zm-26.46-.42c.4-.01.8.1 1.13.3l6 3.36c.8.45.8 1.66-.05 2.15l-6.4 3.76c-.72.4-1.62.45-2.3.04l-5.9-3.36c-.8-.5-.8-1.66 0-2.15l6.36-3.76c.38-.22.78-.33 1.18-.34h0zm39.63-7.57c.4-.01.8.1 1.15.3l6 3.33c.8.5.8 1.7-.05 2.2l-6.4 3.78c-.72.4-1.62.4-2.35.05l-5.87-3.37c-.8-.5-.8-1.66 0-2.16l6.36-3.78c.38-.23.77-.34 1.17-.35h0zm-26.5-.2c.4-.01.8.08 1.13.26l5.98 3.37c.85.45.8 1.66 0 2.16l-6.43 3.78c-.67.45-1.57.45-2.3.04l-5.85-3.37c-.85-.45-.8-1.66 0-2.16l6.3-3.78c.35-.2.76-.3 1.16-.3h0zm-26.5-.38c.4-.01.8.1 1.13.3l5.98 3.33c.85.45.8 1.7-.04 2.2l-6.4 3.78c-.72.4-1.62.4-2.3 0l-5.85-3.33c-.85-.5-.8-1.7 0-2.2l6.3-3.73a2.05 2.05 0 0 1 1.16-.35h0zm39.82-7.55a2.03 2.03 0 0 1 1.15.32l5.98 3.3c.85.5.8 1.66-.04 2.2l-6.4 3.76c-.72.4-1.62.4-2.3 0l-5.85-3.3c-.85-.5-.8-1.7 0-2.2l6.3-3.76c.35-.2.74-.32 1.14-.32h0zm-26.46-.2c.4-.01.8.08 1.13.28l6 3.33c.8.5.8 1.7-.05 2.2l-6.4 3.73c-.72.45-1.62.45-2.3.04l-5.9-3.33c-.8-.5-.8-1.7 0-2.2l6.36-3.73c.38-.2.78-.3 1.18-.32h0zm-26.7-.4a2.11 2.11 0 0 1 1.13.28l5.98 3.3c.85.45.8 1.7 0 2.2l-6.43 3.76c-.67.4-1.57.45-2.3 0l-5.85-3.3c-.85-.5-.8-1.66 0-2.2l6.3-3.7a2.63 2.63 0 0 1 1.16-.33h0zm66.34-7.2a2.45 2.45 0 0 1 1.15.26l6 3.37c.8.5.8 1.7-.05 2.2l-6.4 3.73c-.72.45-1.62.45-2.35.04L857.9 308c-.8-.5-.8-1.7 0-2.2l6.36-3.73c.38-.22.77-.33 1.17-.34h0zm-79.47-.18c.4-.01.8.08 1.13.28l6 3.36c.8.45.8 1.66 0 2.15l-6.45 3.76c-.72.4-1.62.45-2.3 0l-5.9-3.3c-.8-.5-.8-1.66 0-2.15l6.36-3.76c.37-.2.77-.32 1.17-.33h0zm52.97 0a2.11 2.11 0 0 1 1.13.28l5.98 3.36c.85.45.8 1.66 0 2.15l-6.43 3.76c-.67.4-1.57.45-2.3 0l-5.85-3.3c-.85-.5-.8-1.66 0-2.15l6.3-3.76c.35-.2.76-.32 1.16-.33h0zm-26.5-.42c.4-.01.8.08 1.13.27l5.98 3.34c.85.5.8 1.72-.05 2.2l-6.4 3.8c-.72.4-1.62.4-2.3.04l-5.85-3.4c-.85-.45-.8-1.67 0-2.17l6.3-3.8c.36-.2.77-.3 1.17-.3h0zm66.33-7.15a2.11 2.11 0 0 1 1.13.28l5.98 3.36c.85.4.8 1.6 0 2.15l-6.43 3.76c-.67.4-1.57.45-2.3 0l-5.85-3.36c-.85-.45-.8-1.6 0-2.15l6.3-3.72a2.62 2.62 0 0 1 1.16-.32h0zm-79.68-.4c.4-.01.8.1 1.13.3l5.98 3.33c.85.5.8 1.7 0 2.2l-6.43 3.78c-.67.4-1.57.4-2.3.04l-5.85-3.37c-.85-.5-.8-1.66 0-2.16l6.3-3.78c.35-.22.76-.34 1.16-.34h0zm53.17 0c.4-.01.8.1 1.15.3l5.98 3.33c.85.5.8 1.7-.04 2.2l-6.4 3.78c-.72.4-1.62.4-2.3.04l-5.85-3.37c-.85-.5-.8-1.66 0-2.16l6.3-3.78c.35-.22.74-.34 1.14-.34h0zm-26.46-.2c.4 0 .8.1 1.13.3l6 3.33c.8.45.8 1.66-.05 2.16l-6.4 3.78c-.72.45-1.62.45-2.3.04l-5.9-3.37c-.8-.45-.8-1.66 0-2.16l6.36-3.78c.38-.2.78-.3 1.18-.3h0zm66.1-7.16c.4-.01.8.1 1.15.3l5.98 3.33c.85.5.8 1.7-.05 2.2l-6.4 3.78c-.72.4-1.62.4-2.34.04l-5.8-3.37c-.85-.5-.8-1.66 0-2.16l6.3-3.78c.36-.22.75-.34 1.15-.34h0zm-79.47-.4c.4 0 .8.1 1.13.3l5.98 3.33c.85.45.8 1.66-.05 2.16l-6.4 3.78c-.72.45-1.62.45-2.3.04l-5.85-3.37c-.85-.45-.8-1.66 0-2.16l6.3-3.78c.37-.2.78-.3 1.17-.3h0zm53 0a2.38 2.38 0 0 1 1.15.3l6 3.33c.8.45.8 1.66-.05 2.16l-6.4 3.78c-.72.45-1.62.45-2.35.04l-5.87-3.37c-.8-.45-.8-1.66 0-2.16l6.36-3.78c.38-.2.77-.3 1.17-.3h0zm-26.5-.2c.4-.01.8.08 1.13.26l5.98 3.37c.85.5.8 1.7 0 2.2l-6.43 3.78c-.67.4-1.57.4-2.3 0l-5.85-3.33c-.85-.5-.8-1.7 0-2.2l6.3-3.73c.35-.22.76-.33 1.16-.35h0zm66.3-7.17c.4-.01.8.08 1.15.26l6.02 3.33c.8.5.8 1.7-.05 2.2l-6.43 3.78c-.72.45-1.63.45-2.35.04l-5.84-3.37c-.8-.45-.8-1.66 0-2.16l6.33-3.78c.38-.2.78-.3 1.17-.3h0zm-79.44-.37c.4-.01.8.08 1.13.28l6 3.36c.8.5.8 1.66-.05 2.2l-6.4 3.72c-.72.45-1.62.45-2.3.04l-5.9-3.3c-.8-.5-.8-1.7 0-2.2l6.36-3.76c.38-.2.78-.32 1.18-.33h0zm52.97 0a2.11 2.11 0 0 1 1.13.28l5.98 3.36c.85.5.8 1.66 0 2.2l-6.43 3.7c-.67.45-1.57.45-2.3.04l-5.85-3.3c-.85-.5-.8-1.7 0-2.2l6.3-3.76c.35-.2.76-.3 1.16-.32h0zm-26.5-.4a2.25 2.25 0 0 1 1.15.28l5.98 3.33c.85.5.8 1.7-.04 2.2l-6.4 3.73c-.72.45-1.62.45-2.3.04l-5.85-3.33c-.85-.45-.8-1.7 0-2.2l6.3-3.73c.35-.2.74-.3 1.14-.32h0zm95-6.8c.4-.01.8.1 1.13.3l6 3.35c.86.5.8 1.72-.05 2.22l-74.48 43.13c-.68.45-1.58.45-2.3.05l-5.87-3.35c-.86-.5-.8-1.72 0-2.22l74.4-43.13c.37-.23.78-.35 1.18-.35h0zm-28.86-.38a2.11 2.11 0 0 1 1.13.28l5.98 3.36c.85.45.8 1.66 0 2.2l-6.43 3.7c-.67.45-1.57.45-2.3.04l-5.85-3.3c-.85-.5-.8-1.7 0-2.2l6.3-3.76c.35-.2.76-.3 1.16-.32h0zm-79.48-.23c.4-.01.8.08 1.13.26l5.98 3.37a1.25 1.25 0 0 1 0 2.16l-6.43 3.78c-.67.45-1.57.45-2.3.04l-5.85-3.33c-.85-.5-.8-1.7 0-2.2l6.3-3.73c.35-.22.76-.33 1.16-.35h0zm52.97 0a2.45 2.45 0 0 1 1.15.26l5.98 3.37c.85.5.8 1.7-.05 2.16l-6.4 3.78c-.72.45-1.62.45-2.34.04l-5.8-3.33c-.85-.5-.8-1.7 0-2.2l6.3-3.73a2.41 2.41 0 0 1 1.15-.35h0zm-26.47-.4c.4-.01.8.1 1.15.3l6 3.33c.8.5.8 1.7-.05 2.2l-6.4 3.78a2.45 2.45 0 0 1-2.35 0l-5.87-3.33c-.8-.5-.8-1.66 0-2.16l6.36-3.78c.38-.22.77-.33 1.17-.34h0zm92.82-6.76a2.11 2.11 0 0 1 1.13.28l5.98 3.36c.85.45.8 1.7 0 2.2l-6.43 3.7c-.67.45-1.57.45-2.3.04l-5.85-3.3c-.85-.5-.8-1.7 0-2.2l6.3-3.76c.35-.2.76-.3 1.16-.32h0zm-26.5-.4c.4-.01.8.1 1.15.3l5.98 3.33c.85.5.8 1.7-.05 2.16l-6.4 3.78c-.72.45-1.62.45-2.34.04l-5.8-3.33c-.85-.5-.8-1.7 0-2.2l6.3-3.73a2.21 2.21 0 0 1 1.15-.35h0zm-79.48-.2c.4-.01.8.1 1.15.3l5.98 3.33c.85.5.8 1.66-.05 2.2l-6.4 3.78c-.72.4-1.62.4-2.3 0l-5.85-3.33c-.85-.5-.8-1.66 0-2.16l6.3-3.78c.36-.22.75-.33 1.15-.34h0zm52.98 0c.4-.01.8.1 1.15.3l6.02 3.33c.8.5.8 1.66-.05 2.2l-6.43 3.78a2.45 2.45 0 0 1-2.35 0l-5.84-3.33c-.8-.5-.8-1.66 0-2.16l6.33-3.78c.38-.22.78-.33 1.17-.34h0zm-26.47-.4c.4-.01.8.08 1.13.26l5.98 3.33c.85.5.8 1.7 0 2.2l-6.43 3.78c-.67.45-1.57.45-2.3.04l-5.85-3.37c-.85-.5-.8-1.66 0-2.16l6.3-3.78c.35-.2.76-.3 1.16-.3h0zm92.8-6.76c.4-.01.8.1 1.15.3l5.98 3.33c.85.5.8 1.7-.05 2.16l-6.4 3.78c-.72.45-1.62.45-2.34.04l-5.8-3.37c-.85-.45-.85-1.66 0-2.16l6.3-3.73c.36-.23.75-.35 1.15-.35h0zm-26.47-.4c.4-.01.8.1 1.15.3l6 3.33c.8.45.8 1.7-.05 2.2l-6.4 3.78a2.45 2.45 0 0 1-2.35 0l-5.87-3.33c-.8-.5-.8-1.66 0-2.2l6.36-3.73c.38-.23.77-.34 1.17-.35h0zm-79.68-.4c.4-.01.8.1 1.15.3l6 3.33c.8.5.8 1.7-.05 2.2l-6.4 3.78c-.72.4-1.62.4-2.35.04l-5.87-3.37c-.8-.5-.8-1.66 0-2.16l6.36-3.78c.38-.22.77-.33 1.17-.34h0zm52.98 0c.4-.01.8.1 1.13.3l5.98 3.33c.85.5.8 1.7 0 2.2l-6.43 3.78c-.67.4-1.57.4-2.3.04l-5.85-3.37c-.85-.5-.8-1.66 0-2.16l6.3-3.78a2.3 2.3 0 0 1 1.16-.34h0zm-26.5-.18a2.11 2.11 0 0 1 1.15.32l5.98 3.3c.85.45.8 1.66-.05 2.15l-6.4 3.76c-.72.45-1.62.45-2.34.04l-5.8-3.36c-.85-.45-.8-1.66 0-2.15l6.3-3.76a2.6 2.6 0 0 1 1.15-.31h0zm92.83-6.8a2.32 2.32 0 0 1 1.17.3l6 3.33c.8.45.8 1.7-.05 2.2l-6.4 3.78a2.45 2.45 0 0 1-2.35 0l-5.87-3.33c-.8-.5-.8-1.66 0-2.2l6.36-3.73c.35-.23.75-.35 1.15-.35h0zm-26.48-.4c.4-.01.8.1 1.13.3l5.98 3.33c.85.5.8 1.7 0 2.2l-6.43 3.78c-.67.4-1.57.4-2.3 0l-5.85-3.33c-.85-.5-.8-1.66 0-2.16l6.3-3.78a2.3 2.3 0 0 1 1.16-.34h0zm-79.48-.38a2.11 2.11 0 0 1 1.13.28l5.98 3.36c.85.45.8 1.66 0 2.15l-6.43 3.76c-.67.45-1.57.45-2.3.04l-5.85-3.36c-.85-.45-.8-1.66 0-2.15l6.3-3.76c.35-.2.76-.3 1.16-.32h0zm52.97 0a2.25 2.25 0 0 1 1.15.28l5.98 3.36c.85.45.8 1.66-.05 2.15l-6.4 3.76c-.72.45-1.62.45-2.34.04l-5.8-3.36c-.85-.45-.8-1.66 0-2.15l6.3-3.76c.36-.2.75-.3 1.15-.32h0zm-26.5-.23c.4-.01.8.08 1.15.26l6.02 3.37c.8.5.8 1.66-.05 2.2l-6.43 3.73c-.72.45-1.63.45-2.35.04l-5.84-3.33c-.8-.5-.8-1.7 0-2.2l6.33-3.78c.38-.18.78-.28 1.17-.3h0zm92.85-6.76c.4-.01.8.1 1.13.3l5.98 3.33c.85.5.8 1.7 0 2.2l-6.43 3.78c-.67.4-1.57.4-2.3.04l-5.85-3.37c-.85-.5-.8-1.66 0-2.16l6.3-3.78c.35-.22.76-.34 1.16-.34h0zm-26.5-.38a2.25 2.25 0 0 1 1.15.28l5.98 3.3c.85.5.8 1.7-.05 2.2l-6.4 3.76c-.72.45-1.62.45-2.34.04l-5.8-3.36c-.85-.45-.85-1.66 0-2.2l6.3-3.7c.36-.2.75-.3 1.15-.32h0zm-26.47-.4a2.25 2.25 0 0 1 1.15.28l6 3.36c.8.45.8 1.66-.05 2.2l-6.4 3.7c-.72.4-1.62.45-2.35.04l-5.87-3.3c-.8-.5-.8-1.7 0-2.2l6.36-3.76c.38-.2.77-.3 1.17-.32h0zm-53.2 0a2.25 2.25 0 0 1 1.15.28l5.98 3.36c.85.45.8 1.66-.05 2.2l-6.4 3.7c-.72.4-1.62.45-2.34.04l-5.8-3.3c-.85-.5-.8-1.7 0-2.2l6.3-3.76c.36-.2.75-.3 1.15-.32h0zm26.5-.42c.4-.01.8.1 1.13.3l5.98 3.3c.85.45.8 1.66 0 2.15l-6.43 3.8c-.67.4-1.57.45-2.3 0l-5.85-3.36c-.85-.45-.8-1.6 0-2.15l6.3-3.7a2.3 2.3 0 0 1 1.16-.34h0zm66.32-6.97c.4-.01.8.08 1.17.26l6 3.37c.8.45.8 1.7-.05 2.2l-6.4 3.73c-.72.4-1.62.45-2.35.04l-5.87-3.33c-.8-.5-.8-1.7 0-2.2l6.36-3.73c.35-.22.75-.33 1.15-.34h0zm-79.5-.4c.4-.01.8.1 1.15.3l6.02 3.33c.8.45.8 1.66-.05 2.16l-6.43 3.78c-.72.45-1.63.45-2.35.04l-5.84-3.37c-.8-.45-.8-1.66 0-2.16l6.33-3.73c.38-.23.78-.34 1.17-.35h0zm53 0c.4-.01.8.1 1.13.3l5.98 3.33c.85.45.8 1.66 0 2.16l-6.43 3.78c-.67.45-1.57.45-2.3.04l-5.85-3.37c-.85-.45-.8-1.66 0-2.16l6.3-3.73c.35-.23.76-.34 1.16-.35h0zm-26.5-.4a2.38 2.38 0 0 1 1.15.3l5.98 3.33c.85.5.8 1.7-.05 2.2l-6.4 3.78a2.43 2.43 0 0 1-2.34 0l-5.8-3.33c-.85-.5-.8-1.66 0-2.16l6.3-3.82a2.35 2.35 0 0 1 1.15-.3h0zm39.84-7.37c.4-.01.8.1 1.15.3l5.98 3.33c.85.45.8 1.7-.05 2.2l-6.4 3.78a2.43 2.43 0 0 1-2.34 0l-5.8-3.33c-.85-.5-.85-1.66 0-2.2l6.3-3.73a2.21 2.21 0 0 1 1.15-.35h0zm-53.17 0c.4-.01.8.1 1.13.3l5.98 3.33c.85.45.8 1.7 0 2.2l-6.43 3.78c-.67.4-1.57.4-2.3 0l-5.85-3.33c-.85-.5-.8-1.66 0-2.2l6.3-3.73c.35-.23.76-.34 1.16-.35h0zm26.7-.4c.4-.01.8.1 1.15.3l6 3.33c.8.5.8 1.7-.05 2.2l-6.4 3.78c-.72.4-1.62.4-2.35.04l-5.87-3.37c-.8-.5-.8-1.66 0-2.16l6.36-3.78c.38-.22.77-.33 1.17-.34h0zm-13.37-7.57c.4-.01.8.1 1.15.3l5.98 3.33c.85.5.8 1.7-.05 2.2l-6.4 3.78c-.72.4-1.62.4-2.34.05l-5.8-3.37c-.85-.45-.8-1.7 0-2.16l6.3-3.78a2.21 2.21 0 0 1 1.15-.35h0zm26.5-.18a2.11 2.11 0 0 1 1.13.28l5.98 3.36c.85.45.8 1.66 0 2.15l-6.43 3.76c-.67.45-1.57.45-2.3.04l-5.85-3.36c-.85-.45-.8-1.66 0-2.15l6.3-3.76c.35-.2.76-.3 1.16-.32h0zm-13.14-7.57a2.25 2.25 0 0 1 1.15.28l6 3.36c.8.45.8 1.66-.05 2.15l-6.4 3.76c-.72.45-1.62.45-2.35.04l-5.87-3.36c-.8-.45-.8-1.66 0-2.15l6.36-3.76c.38-.2.77-.3 1.17-.32h0z"/><path d="M677.4 349.76h0c0-.45.05-.86.18-1.22h0c0-1.35.9-2.76 2.67-3.75l23.72-13.64c3.52-2 9.26-2 12.78 0l60.08 34.7c1.8 1.04 2.7 2.44 2.62 3.8h0c.14.36.23.68.23 1h0v5.3c.05 1.35-.8 2.76-2.62 3.8l-23.8 13.7c-3.52 2.08-9.26 2.08-12.78 0l-57.2-32.97-3.25-1.9c-1.72-1-2.62-2.3-2.62-3.6h0v-5.15" class="B"/><path fill="#333f4f" d="M784.25 368.04h0c1 .6 2.67-1.68 2.67-1.68h0v5.34c0 1.36-.86 2.72-2.67 3.76l-23.76 13.77c-3.52 2.04-9.3 2.04-12.83 0l-60.4-34.97c-1.76-1.04-2.67-2.35-2.67-3.67h0v-5.16c0-.72 1.85 1.86 2.67 1.4l23.8-13.68c3.52-2.08 9.3-2.08 12.83 0l60.35 34.9"/><path fill="#222a35" d="M784.22 363.05h0c3.53 2.03 3.53 5.38 0 7.37l-23.8 13.74c-3.53 2.08-9.32 2.08-12.85 0l-60.5-34.9c-3.57-2.03-3.57-5.38 0-7.4l23.84-13.65c3.53-2.03 9.32-2.03 12.85 0l60.45 34.85"/><path d="M783.8 361.66h0c3.47 2 3.47 5.33 0 7.3l-23.7 13.68c-3.47 2.03-9.2 2.03-12.73 0l-60.1-34.7c-3.52-2.03-3.52-5.33 0-7.36l23.7-13.6c3.52-2.03 9.25-2.03 12.77 0l60.07 34.67" class="C"/><path d="M779.47 365.6l-22.75 13.13c-3.02 1.76-6.68 1.76-9.66 0l-56.87-32.9c-1.04-.6-1.04-2.08 0-2.7l22.8-13.08c2.98-1.7 6.68-1.7 9.66 0l56.82 32.9c1.1.58 1.1 2.07.01 2.66" class="F"/><path fill="#333f4f" d="M690.12 356.1l1.15.72v-5.58l-1.15-.73v5.6"/><path d="M985.34 161.95l28.07-16.08c1.8-1.04 4.07-1.04 5.88.1l21.06 12.7c2.17 1.3 2.12 4.46-.1 5.72l-28.2 16.17a5.74 5.74 0 0 1-5.88-.04l-20.88-12.6c-2.26-1.35-2.22-4.64.04-5.95" class="B"/><path d="M999.93 150.46l-23.25-14.52 4.97 27.78a5.48 5.48 0 0 0 2.44 3.62l12.15 7.65c2.26 1.4 5.15 1.5 7.45.14l18.6-10.72c1.9-1.1 3.2-2.94 3.6-5.1l4.74-26.56-30.7 17.72" class="G"/><path fill="#9a7c2d" d="M1029.46 140.4l1.4-7.7-30.84 17.74-20.27-12.58-.36.18c-.86.5-1.5 1.18-2 1.9l1.45 8c.14.1.27.23.45.32l16.83 10.18h.05c2.3 1.4 3.86 3.85 3.86 6.56v11.04c1.27.04 2.6-.27 3.76-.95l18.7-10.72.68-.45a7.46 7.46 0 0 0 2.95-4.66l2.63-14.66.7-4.22"/><g class="G"><path d="M1031 130.8l-19.1-9.1c-2.62-1.54-5.83-1.58-8.45-.05l-27 13.13v6.25c.14 1.86 1.04 3.62 2.85 4.7l16.75 10.2c2.57 1.54 5.83 1.58 8.45.1l23.44-13.54c2.08-1.22 3.07-3.17 3.07-5.34v-6.34"/><path d="M1003.4 121.7l-2.08.95-5.33 27.5c3.3 1.3 5.15 3.5 5.34 6.76h0a8.59 8.59 0 0 0 3.12-1.04l23.47-13.47c2.08-1.22 3.07-3.15 3.07-5.3v-6.3l-19.13-9.05c-.14-.04-.32-.1-.45-.18h-7.78c-.05.04-.18.1-.23.14"/></g><path d="M979.45 129.92l24.05-13.94c2.62-1.5 5.82-1.5 8.44.1l16.1 9.86c4.15 2.5 4.06 8.54-.14 11l-23.37 13.53c-2.62 1.54-5.87 1.5-8.44-.1l-16.74-10.22c-3.88-2.32-3.8-7.95.1-10.22" class="E"/><path d="M983.2 132.2l21.05-12.14c1.54-.9 3.43-.86 4.97.05l15.45 9.4c1.76 1.04 1.72 3.56-.05 4.6l-20.87 12a5.01 5.01 0 0 1-4.97-.04l-15.63-9.48c-1.66-1-1.62-3.43.05-4.38" class="O"/><path fill="#b34626" d="M1024.7 133.16h0l.5.36c1.22-1.12 1.04-3.22-.5-4.1l-15.47-9.3c-1.54-.9-3.44-.94-4.97-.04L983.2 132.1c-1.54.9-1.72 2.95-.45 4.07h0c.18-.13.27-.22.45-.3l21.08-12c1.54-.9 3.44-.9 4.97.04l15.47 9.25"/><path d="M1003.73 135.56h0s-3.48-17.64-.63-24.95h0c2.84-7.26 1.45-7.08-1-12.77h0c-2.48-5.68-4.06-19.5 7.68-20.7h0c11.8-1.22 8.44-11.2 13.82-13.17h0c10.57-3.83 13 10.56 9.35 18.05h0c-3.66 7.53 4.3 10.38 1.67 18.45h0c-2.66 8.17-11.83 8.17-14.04 13.63h0c-2.28 5.5-5.03 13.84-16.86 21.47" class="H"/><path fill="#34a870" d="M1003.87 136.03h0s-4.74-29.16-10.74-27.67h0c-8.57 2.13-3.43-9.45-14.57-13.97h0c-1.58-.63-4.65 1.5-7.94 1.3h0c-5.2-.32-10.87-2.35-11.78.4h0c-1.5 4.52 12.86 10.98 12.86 17.18h0c0 6.24-4.06 12.88 5.77 12.88h0c9.9.01 26.4 9.86 26.4 9.86"/></g><path d="M1003.98 136.1h0c5.16-22.9 11.9-40.85 20.47-58.15m-56.95 22.07h0s31.37 19 35.47 35.48" fill="none" stroke="#24714c" stroke-width=".12" class="P Q"/><g class="I"><path fill="#af9164" d="M1008.07 135.44h0c0 1.2-2.08 2.16-4.6 2.16h0c-2.58 0-4.7-.94-4.7-2.16h0c0-1.13 2.13-2.12 4.7-2.12h0c2.53 0 4.6 1 4.6 2.12"/><path fill="#41538c" d="M1215.72 338.6h0s14.3 4.07 18.42 17.1h0c3.43 10.76-2.03 120.37-2.03 131.3h0c0 10.94-2.08 24.63-8.9 34.22h0s17.1 1.36 22.58-17.1h0c5.46-18.5 12.96-143.7 9.57-152.55h0c-3.43-8.9-32.15-18.45-39.64-12.98"/></g><path fill="none" stroke="#dc653d" stroke-width=".48" d="M1052.4 165.6l-8.15 3.83s0 12.75 4.6 16.58h0c2.4 1.98 11.7.54 12.48-2.03h0c.76-2.56-8.92-18.38-8.92-18.38" class="P Q"/><g class="I"><path d="M1104.2 275.2h0l-100.02-48.64-10.2 14.1s43.93 43.08 104.5 68.53l5.74-34" class="D"/><path d="M1114.75 243.38h0c-3.9 15.54-10.77 19.5-20.04 15.72h0c-24.47-9.98-53.87-24.03-76.5-28.82h0c-1.76-.36-3.57-.04-5.16.86h0c-6.3 3.66-11.13 8.9-13.03 14.72h0c-1.04 3.07-.14 6.4 2.13 8.76h0c11.67 11.8 55 52.62 103.63 60.93l8.96-72.17" class="G"/><path d="M1040.98 667.24h0c5.06-2.93 5.73-9.57.86-12.86l-62.18-37.7c-.54-.36-1.22-.36-1.8-.1l-16.26 7.85c-5.92 2.9-5.6 11.42-.63 15.7h0c8.94 7.72 20.6 17.56 44.66 27.94h0c11.97 5.23 22.5 6.5 35.36-.86" class="C"/><path d="M1042.7 657.3h0c-.5-2.13 1.3-23.7-6.28-30.04h0c-4.25-3.48-13.2-4.34-19.57-4.8h0c-13.5-.9-43.53-19.6-54.2-7.92h0c-5.8 6.38-3.48 17.28-2.35 19.46h0c5.1 9.77 42.44 31.4 52.16 34.1h0c14.83 4.07 32.32-1.26 30.24-10.8" class="O"/><g fill="#222a35"><path d="M1057.65 655.1h0c-6.4-3.75-11.62-.8-11.62 6.42h0c0 7.28 5.22 16.2 11.62 19.9h0c6.4 3.7 11.62.86 11.62-6.42h0c0-7.28-5.22-16.2-11.62-19.9"/><path d="M1055.58 687.56h0c6.77-.72 10.3-3.65 11.65-6.54l-16.53-27.5c-3.66.9-10.3 4-12.1 8.1l16.98 25.93"/><path d="M1049.5 659.87h0c-6.4-3.7-11.62-.8-11.62 6.42h0c0 7.28 5.22 16.2 11.62 19.95h0c6.4 3.7 11.62.8 11.62-6.47h0c0-7.28-5.22-16.2-11.62-19.9m132.1-6.57h0c6.4-3.75 11.62-.86 11.62 6.42h0c0 7.28-5.22 16.2-11.62 19.9h0c-6.44 3.7-11.62.86-11.62-6.42h0c.01-7.28 5.18-16.2 11.62-19.9"/><path d="M1183.57 685.75h0c-6.73-.72-10.3-3.6-11.65-6.5l16.53-27.53c3.66.9 10.3 4.02 12.1 8.13l-16.98 25.9"/><path d="M1189.95 658.05h0c6.43-3.7 11.68-.85 11.68 6.4h0c0 7.24-5.25 16.1-11.68 19.8h0c-6.43 3.7-11.68.85-11.68-6.4h0c.01-7.24 5.26-16.1 11.68-19.8M1035.5 734.2h0c6.47-3.75 11.68-.8 11.68 6.42h0c0 7.28-5.2 16.2-11.68 19.95h0c-6.47 3.66-11.68.8-11.68-6.47h0c.01-7.27 5.2-16.2 11.68-19.9"/><path d="M1037.55 766.63h0c-6.8-.72-10.3-3.6-11.67-6.5l16.5-27.53c3.66.9 10.3 4.02 12.12 8.13l-16.96 25.9"/><path d="M1043.67 738.94h0c6.47-3.7 11.68-.86 11.68 6.4h0c0 7.27-5.2 16.16-11.68 19.86h0c-6.43 3.7-11.68.86-11.68-6.4h0c.01-7.26 5.26-16.16 11.68-19.86m150.66-14.34h0c-6.44-3.77-11.62-.82-11.62 6.45h0c0 7.3 5.18 16.25 11.62 19.98h0c6.44 3.72 11.62.86 11.62-6.45h0c0-7.32-5.18-16.26-11.62-19.98"/><path d="M1192.3 757.27h0c6.74-.68 10.27-3.6 11.63-6.5l-16.5-27.53c-3.66.9-10.3 4.02-12.12 8.13l17 25.9"/><path d="M1185.96 729.35h0c-6.43-3.7-11.64-.8-11.64 6.42h0c0 7.28 5.2 16.2 11.64 19.95h0c6.38 3.7 11.6.8 11.6-6.47h0c0-7.28-5.2-16.2-11.6-19.9"/></g><path d="M1047.02 741.88c2.9-.3 4.9 1.76 4.9 5.5 0 5.02-3.6 11.18-8.05 13.76-4.46 2.54-8.05.54-8.05-4.44 0-5.02 3.6-11.18 8.05-13.72 1.12-.63 2.18-1 3.14-1.1h0zm135.7-9.9c1 .1 2.13.48 3.3 1.16 4.64 2.66 8.43 9.16 8.43 14.4 0 5.28-3.78 7.36-8.43 4.7-4.7-2.7-8.47-9.16-8.47-14.44 0-3.96 2.13-6.12 5.17-5.8h0zm-136.84-69.9c1.04.1 2.18.5 3.38 1.18 4.77 2.77 8.65 9.48 8.65 14.88 0 5.44-3.87 7.62-8.65 4.85-4.82-2.8-8.65-9.48-8.65-14.92.01-4.08 2.16-6.3 5.27-6h0zm147.04-1.1c2.9-.3 4.9 1.78 4.9 5.6 0 5.03-3.6 11.24-8.05 13.82s-8.05.6-8.05-4.48 3.6-11.24 8.05-13.82c1.12-.66 2.18-1.02 3.14-1.1h0z" class="C"/><path fill="#edceac" d="M1137.14 240.83h0c-11.03 10.18-23.32 10.77-36.33 5.75h0a12.92 12.92 0 0 1-8-9.59l-11.97-61.3 51.38 1.27 9.53 48.82c1.08 5.55-.55 11.34-4.6 15.05"/><path d="M1052.83 178.9h0c5.92 30.32 15.63 50.97 33.84 48.22h0c17.67-2.7 2.2-37 12.8-50.2h0c2.35-2.9 22.37-3.6 24.9-6.55h0c9.7-11.3-9.04-62.36-34.48-57.34h0c-15.95 3.12-31.95 8.72-37.86 23.8h0c-2.26 5.83 0 38 .8 42.07" class="D"/><path d="M1052.18 102.4h0c-16.35 9.5-13.82 30.63-6.32 43.7h0c3.7 6.55 8.08 9.26 15.94 11.43h0c7.8 2.2 9.08 21.7 9.62 27.5h0s4.02 1.8 5.33-5.42h0c1.3-7.27 9.12-18.48 12.2-8.54h0c3.12 9.94 15 23.94 19.64 30.18h0c4.65 6.2 28.94 6.9 36.62-9.17h0c-16.7-23.85 18.87-44.4-12.55-81.36h0c-6.68-14.6-20.64-28.5-67.2-3.98h0c-2.17 1.27-10.07-1.5-13.28-4.34" class="F"/><path fill="#edceac" d="M1079.5 182.28h0c2.3 8.6 5.84 15.32 11.4 13.82h0c5.62-1.45 9.2-14.64 6.93-23.25h0c-2.26-8.66-4.8-11.33-10.37-9.83h0c-5.57 1.5-10.23 10.65-7.97 19.26"/><path d="M1076.98 179.07h0c2.27 8.6 5.8 15.3 11.43 13.84h0c5.58-1.5 10.98-13.88 8.7-22.48h0c-2.27-8.6-6.62-12.03-12.16-10.58h0c-5.62 1.5-10.24 10.63-7.98 19.22" class="D"/><path d="M957.65 718.2h0c5.1-2.9 5.78-9.56.9-12.85l-62.17-37.66c-.54-.32-1.27-.36-1.8-.04l-16.22 7.8c-5.96 2.9-5.65 11.46-.68 15.74h0c8.95 7.7 20.6 17.5 44.64 27.92h0c11.98 5.18 22.5 6.48 35.34-.9" class="C"/><path d="M959.43 708.14h0c-.5-2.13 1.3-23.7-6.3-30h0c-4.2-3.53-13.2-4.4-19.58-4.84h0c-13.52-.9-43.5-19.55-54.18-7.87h0c-5.8 6.38-3.48 17.24-2.35 19.4h0c5.07 9.77 42.46 31.44 52.14 34.1h0c14.84 4.12 32.34-1.26 30.26-10.8" class="O"/><g class="N"><path d="M921.5 677.9h0s-14.17-162.08-8.5-194.1h0c5.66-32.07 29.3-41.47 46.27-40.56h0c17.02 1 13.22 79.2 13.22 79.2l-14.2 171.5s-20.8 7.54-36.8-16.04m70.9-191.77h0c2.12 58.86 9.2 140.15 9.2 140.15h0c16.02 23.6 36.73 16 36.73 16l12.82-156.16H992.4"/><path d="M955.32 444.33h0s8.45-2.85 32.03 5.6h0c23.54 8.54 157.4 62.23 157.4 62.23l59.27-31.23c13.7 107.38-36.32 109-62.17 118.3h0c-12.33 4.43-99.84-22-121.48-30.46h0c-21.7-8.54-65.06-37.74-65.06-37.74v-86.7"/></g><path d="M1134.87 216.72h0c-66.46 17.9-84.68 56.7-84.68 56.7h0c-7.64 101.83-4.6 170.4-3.26 227.65h0c.18 7.05 4.4 13.46 10.76 16.5h0c12.25 5.87 34.36 14.6 59.77 11.52h0c41.68-4.97 70.57-25.98 78.9-33.66h0c4.7-4.38 14.96-15.54 15.42-31.53h0c1-34.83 3.3-109.87-6.83-191.55h0c0-12.6-11.66-71.34-70.07-55.62" class="E"/><path d="M1079.16 262.5h0c-10.1-3.07-27.73 5.3-33.57 14.15h0c-4.3 5.2-8.55 10.4-.27 8.32V400.4c19.46-24.4 36.87-67.8 52.66-97.3h0c8.37-15.6-1.85-35.48-18.82-40.6" class="G"/><path d="M980.23 387h0s-86.24-38.57-99.4-51.12l-9.63 14.72s38.98 51.4 103.3 70.3l5.74-33.9" class="D"/><g class="E"><path d="M990.55 355.24h0c-3.88 15.6-10.75 19.52-20 15.73h0c-25.38-10.35-65.4-20.3-78.94-29.33h0c-7.45 3.7-13.37 9.5-15.53 16.1h0c-1.04 3.07-.14 6.46 2.12 8.77h0c11.65 11.84 54.87 52.65 103.4 61.02l8.95-72.28"/><path d="M983 374.45h0c8.6-28.36 34.35-63.7 62.65-97.8h0c5.83-8.85 23.46-17.2 33.54-14.13h0c16.95 5.1 27.17 24.97 18.8 40.55h0c-22.42 41.77-60.84 103.45-126.47 128.06h0c0-.02 7.6-49.5 11.48-56.68"/></g><path d="M885.14 340.13h0s2.8-14.83 1-19.26h0c-.6-1.36-1.68-4.16-7.66-.6h0c-1.36.8-1.5-2.98-14.6-9.22h0c-1.72-.86-7.8.18-8.16 4.02h0c-.4 3.84-7.25 4.88-7.75 8.36h0c-.4 3.12-2.58 3.4-4.67 5.65h0c-1.4 1.54.72 4.43 0 5.97h0c-.68 1.4-.36 4.43.27 5.38h0c2.3 3.84 18.08 11.7 28.86 11.3h0c10.8-.4 12.7-11.6 12.7-11.6" class="D"/><path d="M1237.74 387.97h0c-2.85 31-5.47 102.65-8.23 116.3h0c-3.07 15.46-38.78 31.05-60.88 44.43h0c-28.7 17.45-30.82-10.58-31.46-30.1h0c-.6-19.48-.8-67.58-2.7-91.44h0c-1.85-23.82-.9-42.8 19.53-58.54h0c29.3-22.42 56.68-33.18 67.53-27.84h0c14.32 7.1 18.9 17.63 16.22 47.2h0zm-2.35-85.03h0c-15.82-7.86-55.82 7.9-98.58 40.68h0c-29.88 22.87-31.2 50.67-28.47 85.48h0c2.7 34.8 1.08 92.48 1.5 120.96h0c.5 35.62-28.16 33.04-28.16 33.04h0c25.8 26.7 62.24 28.97 81.5 21.02h0c34.9-14.37 75.4-42.94 79.9-65.6h0c3.98-19.9 12.47-108.17 16.6-153.46h0c3.9-43.16-3.34-71.68-24.27-82.13h0z" class="K"/><path d="M1250 527.22l-116.95 45.13V363.8l116.95-45.1v208.5" class="B"/><path d="M1205 721.73l-44.5-33.5c-5.52-4.12-5.15-12.48.63-16.1l37.85-23.8s-.8-4.8-8.6-5.43h0c-7.2-.54-55.4 18.54-62.53 21.4h0c-3.35-1-7.2-1.54-11.26-1.54h0c-1.72 0-3.35.1-4.97.27l.14-.23s-50.82-20.3-59.46-18.14h0c-8.64 2.13-9.9 9.23-9.9 9.23l33.73 16.96c6.5 3.26 7.28 12.17 1.5 16.5l-49.06 36.95c-2.94 4.03-1.72 9.68 2.62 12.12h0c3.17 1.76 7.1 1.27 9.72-1.18l56.07-25.96c14.83-6.87 31.92-6.78 46.66.18l49.06 23.2c2.67 2.44 6.6 2.94 9.72 1.18h0c4.33-2.43 5.55-8.08 2.57-12.1" class="F"/><path d="M1107.96 609.48h17.28v63.14h-.05l.05.12c0 2.55-3.9 4.66-8.64 4.66s-8.64-2.1-8.64-4.66l.05-.12h-.05v-63.14z" class="B"/><g class="F"><path d="M1098.92 588.97l-117.1-45.25s35.1 48.8 71.76 63.02h0c36.7 14.2 64.67 13.17 86.54 8.12h0c31.8-7.4 55.5-26.93 55.5-26.93l-96.7 1.04"/><path d="M1245.2 387.97h0c-2.8 31-5.47 102.65-8.18 116.3h0c-3.12 15.46-38.78 31.05-60.88 44.43h0c-28.7 17.45-30.82-10.58-31.46-30.1h0c-.63-19.48-.8-67.58-2.7-91.44h0c-1.85-23.82-.9-42.8 19.52-58.54h0c29.24-22.42 56.63-33.18 67.52-27.84h0c14.3 7.1 18.9 17.63 16.2 47.2h0zm-2.3-85.03h0c-15.82-7.86-55.82 7.9-98.57 40.68h0c-29.87 22.87-31.23 50.67-28.52 85.48h0c2.7 34.8 1.54 92.48 1.54 120.96h0c0 36.93-30.28 34.9-30.28 34.9h0c25.76 26.67 64.36 27.12 83.6 19.17h0c34.9-14.37 75.4-42.94 79.9-65.6h0c3.98-19.9 12.43-108.17 16.6-153.46h0c3.92-43.17-3.36-71.7-24.28-82.14h0z"/></g><path d="M1037.2 514.87h12.1v42.07c0 10.47 6.36 19.95 16.05 23.88l7.5 3.07c6.18 2.53 9.15 9.57 6.63 15.75l-18.67-7.58a37.97 37.97 0 0 1-23.58-35.12v-42.07zm-49.6-20.1h12.1v42.07c0 10.47 6.36 19.95 16.05 23.88l7.5 3.02c6.18 2.57 9.15 9.6 6.63 15.8l-18.67-7.63c-14.25-5.82-23.58-19.68-23.58-35.07v-42.07z" class="B"/><g class="C"><path d="M1052.7 519.46h0c0 2.55-4.2 4.66-9.34 4.66h0c-5.2 0-9.34-2.1-9.34-4.66h0c0-2.55 4.15-4.66 9.34-4.66h0c5.15 0 9.34 2.1 9.34 4.66"/><path d="M1034.04 478.22h18.48V519h-18.48v-40.78zm-49.2-23.3h18.48v40.78h-18.48v-40.78z"/><path d="M1003.5 496.18h0c0 2.55-4.18 4.66-9.36 4.66h0c-5.13 0-9.32-2.1-9.32-4.66h0c0-2.55 4.18-4.66 9.32-4.66h0c5.18 0 9.36 2.1 9.36 4.66"/></g><path d="M981.67 454.36h0c-11.3-5.8-25.75-10.8-18.52-21.65h0c6.73-10.2 23.94-14.5 40.2-12.25h0c19.52 2.7 61.48 33 69.16 42.53h0c7.68 9.5 5.42 22.15-2.7 27.12h0c-8.13 4.97-17.17 4.52-27.56 0h0c-10.4-4.53-45.68-28.03-60.58-35.75" class="F"/><path d="M1043.16 170.42l32.2-1.1.04.57-32.2 1.55-.04-1.02" class="N"/><path d="M1089.84 235.67h0s10.63-1.8 16.3 0h0c5.6 1.76 37.56-10.1 43.2-12.44h0c5.6-2.35 4.7-6.5 3.53-9.18h0c-1.18-2.62-11.54-11.5-11.54-11.5h0s-32.53 12.08-39.96 17.14h0c-6.06 4.12-11.26 9.14-11.53 15.97" class="G"/><path d="M1011.3 229.7h0l-8.72-16.25c-.77-1.04-18 1.22-20.8 1.22h0c-2.8 0-17.72 11.6-17.72 13.63h0c0 2 4.6 1.26 5.83.23h0c1.27-1 13.33-4.74 13.33-4.74h0s4.52 3.7 3.03 4.47h0c-1.54.77-16.32 5.1-14.78 7.9h0c.32.6 1.58 2.08 3.57 2h0c4.97-.14 6.15-.1 9.72-.8h0c2.85-.54 5.8.23 7.86 2.17h0c2.58 2.4 3.75 1.94 3.75 1.94l14.92-11.75" class="D"/><use xlink:href="#B" x="-1" y="-50" class="H"/><path d="M635.77 202.77c.78.01 1.5.63 1.5 1.48v6.15a1.5 1.5 0 0 1-.75 1.3l-15.93 9.28a1.69 1.69 0 0 1-2.54-1.44v-5.65c0-.6.33-1.16.86-1.47l16.1-9.45c.24-.14.5-.2.77-.2h0zm22.45-13.17c.77 0 1.46.62 1.46 1.5v6.2c0 .5-.28 1-.72 1.27l-17.25 10.05c-1 .58-2.23-.14-2.23-1.27v-6.16c0-.52.28-1.02.74-1.3l17.22-10.08c.26-.14.52-.2.78-.2h0zM687 172.84a1.36 1.36 0 0 1 1.33 1.35v6.4a1.74 1.74 0 0 1-.91 1.52l-22.9 13.4c-.88.53-1.98-.1-1.98-1.13v-6.34c0-.64.33-1.22.88-1.55l22.9-13.45c.2-.14.45-.2.68-.2h0z" class="M"/><path fill="#ec7d30" d="M83.8 234.12h0c-39.36 45.4-64.7 103.3-69.14 167h0c-.3 4.07 2.97 7.5 7 7.5H165.3c3.5 0 6.48-2.57 6.98-6.05h0c3.14-21.54 11.65-41.35 24.04-58.02h0c2.1-2.8 1.8-6.7-.67-9.2L94.1 233.8c-2.87-2.88-7.6-2.74-10.28.33"/><path fill="#649c42" d="M426.8 440.24h0c-3.17 21.54-11.62 41.3-24.04 58h0c-2.1 2.8-1.8 6.7.67 9.18L505 609c2.87 2.87 7.6 2.7 10.28-.37h0c39.4-45.35 64.7-103.3 69.14-166.94h0c.3-4.07-2.94-7.55-7-7.55H433.76c-3.48.01-6.45 2.62-6.95 6.1"/><path fill="#4971b8" d="M505 233.8L403.44 335.4c-2.47 2.47-2.77 6.38-.67 9.2h0a128.19 128.19 0 0 1 24.04 58.02h0c.5 3.47 3.47 6.05 6.94 6.05H577.4c4.07 0 7.3-3.44 7-7.5h0c-4.44-63.7-29.75-121.6-69.14-167h0c-2.67-3.1-7.4-3.23-10.28-.35"/><path fill="#fec010" d="M312.22 143.44V287.1c0 3.5 2.57 6.48 6.05 6.98h0c21.56 3.14 41.38 11.62 58.1 24.04h0c2.8 2.07 6.7 1.77 9.2-.7L487.2 215.86c2.9-2.87 2.74-7.6-.33-10.28h0c-45.43-39.4-103.4-64.7-167.13-69.17h0c-4.04-.28-7.52 2.96-7.52 7.03"/><path fill="#5c9bd3" d="M165.3 434.16H21.7c-4.07 0-7.34 3.47-7.04 7.5h0C19.1 505.35 44.45 563.3 83.8 608.64h0c2.67 3.07 7.4 3.24 10.28.37l101.56-101.58c2.47-2.47 2.77-6.38.67-9.18h0c-12.4-16.7-20.9-36.47-24.04-58h0c-.5-3.47-3.47-6.08-6.98-6.08"/><path fill="#a5a4a4" d="M112.05 215.86l101.58 101.56c2.47 2.47 6.38 2.77 9.18.7h0c16.66-12.42 36.47-20.9 57.97-24.04h0c3.47-.5 6.08-3.47 6.08-6.98V143.44c0-4.07-3.44-7.3-7.5-7.04h0c-63.68 4.47-121.6 29.78-166.97 69.17h0c-3.07 2.68-3.23 7.42-.33 10.3"/></g><path fill="#354a9f" d="M224.22 402.6c11.58 0 21-9.42 21-21s-9.42-21-21-21-21 9.42-21 21 9.42 21 21 21zm147.03 0c11.58 0 21-9.42 21-21s-9.42-21-21-21-21 9.42-21 21 9.4 21 21 21zm10.5 10.5h-21a20.95 20.95 0 0 0-14.8 6.1c13.23 7.25 22.6 20.35 24.65 35.9h21.66a10.49 10.49 0 0 0 10.5-10.5v-10.5c-.01-11.58-9.43-21-21-21zm-84 0c20.3 0 36.76-16.44 36.76-36.76s-16.44-36.76-36.76-36.76-36.76 16.44-36.76 36.76 16.44 36.76 36.76 36.76zm25.2 10.5h-2.72c-6.83 3.28-14.4 5.25-22.48 5.25s-15.62-1.97-22.48-5.25h-2.72c-20.87 0-37.8 16.93-37.8 37.8v9.45c0 8.7 7.06 15.75 15.75 15.75H345c8.7 0 15.75-7.06 15.75-15.75v-9.45c0-20.88-16.94-37.8-37.8-37.8zm-73.4-4.4a20.95 20.95 0 0 0-14.8-6.1h-21c-11.58 0-21 9.42-21 21v10.5a10.49 10.49 0 0 0 10.5 10.5h21.63c2.05-15.55 11.44-28.65 24.67-35.9h0z"/><path d="M113.9 319.1H78.86a5.81 5.81 0 0 0-5.81 5.81v35.05a5.81 5.81 0 0 0 5.81 5.81h35.05a5.81 5.81 0 0 0 5.81-5.81V324.9a5.81 5.81 0 0 0-5.81-5.81h0zm23.02 4.58l-13.32 9.2V352l13.32 9.18c2.58 1.77 6.13-.04 6.13-3.14V326.8c-.01-3.1-3.54-4.9-6.13-3.14zm-6.9 159.08l-27.33-11.2c-1.68-.7-3.57-.7-5.25 0l-27.33 11.2c-2.55 1.04-4.2 3.48-4.2 6.2 0 27.78 16.3 46.98 31.53 53.22 1.68.7 3.57.7 5.25 0 12.2-5 31.54-22.25 31.54-53.22 0-2.7-1.67-5.16-4.2-6.2zm-29.95 50.74l-.01-53.3 25.04 10.26c-.47 21.18-11.7 36.53-25.03 43.05h0zM258 242.47h-59.62V199.3c0-1.26-1-2.27-2.2-2.27h-4.42c-1.22 0-2.2 1.02-2.2 2.27v47.72c0 2.5 1.98 4.54 4.42 4.54H258c1.22 0 2.2-1.02 2.2-2.27v-4.54c0-1.26-1-2.28-2.2-2.28zm-4.4-40.9h-16.3c-2.95 0-4.43 3.67-2.34 5.82l4.47 4.6-10.13 10.42-10.13-10.4c-1.73-1.78-4.52-1.78-6.25 0l-9.48 9.75a2.32 2.32 0 0 0 0 3.21l3.12 3.2a2.14 2.14 0 0 0 3.12 0l6.36-6.54 10.13 10.42c1.73 1.78 4.52 1.78 6.25 0l13.25-13.63 4.47 4.6c2.1 2.15 5.65.63 5.65-2.4v-16.76c0-1.26-.98-2.27-2.2-2.27zm274.74 113.57h-57.07c-3.64 0-6.58 2.54-6.58 5.67v41.58c0 3.13 2.95 5.67 6.58 5.67h57.07c3.64 0 6.58-2.54 6.58-5.67v-41.6c.01-3.13-2.94-5.67-6.58-5.67zm-32.92 45.36h-21.95v-11.34h21.95v11.34zm0-18.9h-21.95v-11.34h21.95v11.34zm30.73 18.9H504.2v-11.34h21.95v11.34zm0-18.9H504.2v-11.34h21.95v11.34zm-118.52-94.34L393.38 233c-2.8-2.8-7-3.36-10.4-1.7L370 218.33v-7.56l-15.58-11.68-7.8 7.8 11.68 15.58h7.56l12.97 12.97c-1.66 3.38-1.12 7.58 1.7 10.4l14.25 14.25c1.78 1.78 4.65 1.78 6.4 0l6.4-6.4c1.77-1.78 1.77-4.65.01-6.4h0zM387 226.48c3.44 0 6.68 1.34 9.12 3.77l2.36 2.36c1.92-.84 3.75-2 5.33-3.6 4.52-4.52 6.05-10.87 4.6-16.64-.27-1.1-1.64-1.47-2.45-.67l-9.05 9.05-8.26-1.38-1.38-8.26 9.05-9.05c.8-.8.4-2.18-.7-2.46-5.77-1.42-12.12.1-16.63 4.6-3.47 3.47-5.1 8.04-5 12.6l10 10a13.96 13.96 0 0 1 3.01-.34h0zm-12.64 9.98l-6.9-6.9-18.55 18.56a7.79 7.79 0 0 0 0 11.01 7.79 7.79 0 0 0 11.01 0l15.04-15.04c-.92-2.42-1.2-5.06-.6-7.63h0zm-19.94 20.08c-1.6 0-2.92-1.3-2.92-2.92a2.92 2.92 0 1 1 5.84 0c0 1.6-1.3 2.92-2.92 2.92zM538.74 517.4a15.82 15.82 0 0 0 0-5.74l3.48-2c.4-.23.58-.7.44-1.15a20.24 20.24 0 0 0-4.48-7.74c-.3-.34-.8-.42-1.2-.2l-3.48 2a15.87 15.87 0 0 0-4.98-2.87v-4.02c0-.46-.32-.86-.77-.96-3-.67-6.07-.65-8.93 0-.44.1-.77.5-.77.96v4.02a16.1 16.1 0 0 0-4.98 2.87l-3.48-2a.95.95 0 0 0-1.2.2c-2.02 2.18-3.57 4.83-4.48 7.74-.13.44.05.92.44 1.15l3.48 2a15.82 15.82 0 0 0 0 5.74l-3.48 2c-.4.23-.58.7-.44 1.15.9 2.9 2.45 5.54 4.48 7.74.3.34.8.42 1.2.2l3.48-2a15.87 15.87 0 0 0 4.98 2.87v4.02c0 .46.32.86.77.96 3 .67 6.07.65 8.93 0 .44-.1.77-.5.77-.96v-4.02a16.1 16.1 0 0 0 4.98-2.87l3.48 2a.95.95 0 0 0 1.2-.2c2.02-2.18 3.57-4.83 4.48-7.74.13-.44-.05-.92-.44-1.15l-3.48-2zm-15.44 3.67a6.55 6.55 0 0 1-6.54-6.54 6.56 6.56 0 0 1 6.54-6.54 6.56 6.56 0 0 1 6.54 6.54 6.55 6.55 0 0 1-6.54 6.54zm-53.93-19.48a8.64 8.64 0 0 0 8.63-8.63 8.64 8.64 0 0 0-8.63-8.63 8.64 8.64 0 0 0-8.63 8.63 8.64 8.64 0 0 0 8.63 8.63zm30.2 4.3c.26 0 .5-.07.76-.08 1.12-2.93 2.76-5.68 4.9-7.98a5.31 5.31 0 0 1 3.9-1.7c.93 0 1.85.24 2.64.7l1.07.62.32-.2c.94-1.97 1.5-4.15 1.5-6.47a15.09 15.09 0 0 0-15.1-15.1 15.07 15.07 0 0 0-15.09 15.09 15.09 15.09 0 0 0 15.1 15.1zm14.18 26.23l-.92-.53c-1.1.65-2.06 1.32-3.7 1.32a5.36 5.36 0 0 1-3.9-1.7 24.64 24.64 0 0 1-5.42-9.38c-1.44-4.65 3.36-6.7 3.48-6.78a18.38 18.38 0 0 1 0-1.05l-1.07-.62c-.5-.3-.94-.67-1.32-1.1l-1.32.08c-3.32 0-6.42-.8-9.24-2.16h-1.12a15.54 15.54 0 0 0-15.55 15.53v3.88c0 3.57 2.9 6.47 6.47 6.47h34.43c-.5-.8-.84-1.73-.84-2.74v-1.23h.03zm-34-23.72c-1.56-1.55-3.7-2.5-6.08-2.5h-8.63a8.64 8.64 0 0 0-8.63 8.63v4.3c0 2.4 1.93 4.3 4.3 4.3h8.9c.85-6.38 4.7-11.76 10.14-14.74z" class="C"/><defs ><path id="B" d="M698.58 246.75l-76.72 44.34c-1.04.6-2.3-.14-2.3-1.3v-2.26c0-1.3.72-2.58 1.85-3.26l76.23-43.97c1.04-.63 2.4.18 2.4 1.4v2.58a2.81 2.81 0 0 1-1.45 2.48"/></defs></svg>