<svg xmlns="http://www.w3.org/2000/svg" viewBox="0 0 563.59 816.96"><style><![CDATA[.H{fill:#fff}.I{fill:#f2f2f3}.J{fill:#67c293}.K{fill:#34a870}.L{fill:#63c9d7}.M{fill:#27b0bf}.N{fill:#dad9d9}]]></style><g fill-rule="evenodd"><path d="M280.92 560.32l-163.1 94.26c-11.2 6.5-20.36 1.34-20.4-11.62l-.1-34.52 4.1-1.24c79.63-23.66 138-37.86 175.15-45.96l4.35-.92zm44.4-8.58L109.04 681.36c-45.2 6.96-72.75-66.63-38.47-64.83l15.55-4.7.1 37.63c.1 20 14.23 28.08 31.65 18.03l175.18-101.3c4.35-2.5 8.5-5.92 12.26-9.93l.94-1.13 3.16-.6 15.9-2.8zm49.78 195h0c6.96 16.37 20.74 16.46-.78 48.64h0c-7.56 11.25-25.12 7.6-33.55 14.38h0c-12.03 9.6-43.65 10-55.58-1.3h0c-27.05-25.5-18.44-12.08-14.98-43.98h0c1.24-11.3 67.57-41.4 86.5-33.15h0c10.92 4.7 19.95.97 18.38 15.4" class="I"/><path d="M298.36 2.1h0C292.64-1.22 284.7-.7 276 4.36L100.6 105.6c-17.43 10.05-31.5 34.43-31.44 54.44l1.38 480.4c0 9.9 3.55 16.92 9.22 20.2l15.54 9.03c-5.67-3.27-9.18-10.28-9.22-20.2l-1.34-480.4c-.05-20 14.02-44.4 31.44-54.44L291.54 13.4c8.76-5.07 16.7-5.53 22.45-2.2l-15.63-9.1" class="N"/><path d="M288.32 24.84h0c11.24-6.5 26.58-1.3 26.63 11.6l-.5 480.55c0 12.95-9.35 31.6-20.6 38.06l-177.83 102c-11.24 6.5-20.36 1.34-20.36-11.6l-2.5-484.28c-.05-12.9 9.03-28.62 20.27-35.1l29.76-16.4c1.75-1 3.13-.23 3.13 1.75h0c.05 8.43 5.94 11.8 13.27 7.56l88.32-51.93c7.28-4.2 13.18-14.38 13.13-22.76h0c0-2.03 1.43-4.42 3.13-5.44l24.14-13.98" class="I"/><path d="M298.15 267.42l-179 103.32-.46-189.13L297.65 78.34l.5 189.08" class="N"/><path fill="#a6a5a5" d="M297.54 78.34L118.68 181.5l.1 40.8 178.9-103.17-.13-40.8"/><path d="M209.7 295.2l.05 5.8-68.88 39.67v-5.8l68.83-39.67zm0-13.82l.05 5.8-68.88 39.67v-5.8l68.83-39.67zm0-13.82l.05 5.87-68.88 39.8v-5.82l68.83-39.86zm0-13.8l.05 5.87-68.88 39.8v-5.87l68.83-39.8zm0-13.82l.05 5.87-68.88 39.8v-5.82l68.83-39.86zm0-13.82l.05 5.87-68.88 39.8v-5.87l68.83-39.8zm0-13.82l.05 5.8-68.88 39.67v-5.8l68.83-39.67zm0-13.82l.05 5.82-68.88 39.86v-5.87l68.83-39.8z" class="M"/><path d="M270.18 159.34l.13 105.78-39.34 22.7-.1-105.73 39.3-22.75" class="H"/><path d="M280.9 102.5h0c2.54-1.48 4.6-.28 4.66 2.7h0c0 2.96-2.07 6.58-4.6 8.06h0c-2.58 1.53-4.66.32-4.7-2.64h0c-.01-2.97 2.06-6.6 4.65-8.1" class="J"/><path fill="#e7b821" d="M266.86 110.66h0c2.58-1.47 4.66-.28 4.66 2.67h0c0 2.95-2.03 6.54-4.6 8h0c-2.58 1.47-4.7.32-4.7-2.67h0c-.01-2.95 2.06-6.54 4.65-8"/><path d="M252.64 118.87h0c2.55-1.53 4.6-.28 4.6 2.64h0c0 2.96-2.05 6.62-4.6 8.1h0c-2.5 1.48-4.6.28-4.6-2.7h0c0-2.95 2.05-6.57 4.6-8.05" class="L"/><path d="M164.88 362.66l.32 103.96L299 389.4l-.27-104.06-133.84 77.32" class="N"/><path fill="#a6a5a5" d="M298.75 314.2l-133.78 77.17-.1-28.82 133.83-77.22.04 28.87"/><path d="M288.8 378.52l-44.06 25.46-.05-46.62 44.07-25.46.04 46.62" class="H"/><path d="M231.48 401.2v4.8l-57.12 32.94v-4.84l57.12-32.9zm0-10.97v4.84l-57.12 32.9v-4.84l57.12-32.9zm0-10.97v4.8L174.36 417v-4.84l57.12-32.9zm0-10.77v4.83l-57.12 32.9v-4.83l57.12-32.9zm-72.04 115.9h0c-4.7-2.72-11.23-2.35-18.45 1.84h0c-14.3 8.24-25.9 28.3-25.86 44.8h0c0 8.2 2.9 13.95 7.55 16.66l12.2 6.9c-4.65-2.72-7.82-8.47-7.87-16.66h0c0-16.48 11.55-36.5 25.86-44.8h0c7.22-4.14 13.76-4.56 18.45-1.8l-11.87-6.94" fill="#d87727"/><path fill="#ec9f55" d="M152.35 492.8h0c14.3-8.26 25.9-1.62 25.96 14.9h0c.1 16.48-11.5 36.6-25.77 44.9h0c-14.33 8.3-25.96 1.66-26-14.86h0c-.06-16.53 11.52-36.6 25.8-44.96"/><path d="M160.36 505.65h0c3.9-2.27 7.72-.7 8.04 5.18h0c.28 6.57-6.25 17.1-13.24 27.14h0c-.4.65-.97 1.16-1.52 1.43h0c-.5.32-1 .42-1.47.32h0c-7.08-1.7-13.7-4.62-13.5-11.5h0c.18-6.15 4-12.2 7.95-14.52h0c.78-.46 1.56-.74 2.34-.88h0c3.08-.5 4.27 1.1 4.5 1.43h0c.23-.6 1.42-3.6 4.5-6.7h0a10.99 10.99 0 0 1 2.41-1.89" class="H"/><path d="M268.46 506.7l-6.02-3.52v-15.73l12.3-4.35-6.3 23.6m-54.6-45.84v39.16h.05v.28c.1 1.98 1.1 3.55 2.58 4.3l9.2 5.35.28-8.26 22.43-12.96 6.96 4 .32-8.2c.05-.05.14-.05.14-.1l27.82-16.1v-.05c2.8-1 4.65-4.06 4.5-7.1v-31.22l2.03 1.15 5.7-6.92-9.5-5.44c-1.06-.88-2.5-1.3-4.05-.92h0c-.55.1-1.15.37-1.75.7v-.1l-29.66 17.2-3.22 1.84a6.51 6.51 0 0 0-1.1.65l-28.5 16.5c-2.35 1.06-4.1 3.55-4.2 6.23h-.06" class="K"/><path d="M291.85 423.22c3.04-.64 5.66 1.47 5.75 4.7 0 .23 0 .55-.05.78v37.82c.18 3.04-1.66 6.03-4.5 7.1h.05l-9.6 5.55-14.96 27.46v-18.8l-3.23 1.87c-.5.46-1.1.78-1.75 1l-.1.1-32.2 18.6a6.58 6.58 0 0 1-2.02.87c-3.08.64-5.66-1.47-5.75-4.74-.05-.05-.05-.14-.05-.23V466.2c.1-2.67 1.8-5.2 4.2-6.2l28.48-16.47c.32-.23.7-.46 1.06-.6l3.22-1.9 29.63-17.16v.05c.6-.33 1.2-.56 1.83-.7h0z" class="J"/><path d="M261.9 460.96h0c2.94-1.1 5.33.32 5.33 3.26h0c0 2.94-2.4 6.25-5.33 7.4h0c-2.94 1.15-5.33-.32-5.33-3.26h0c-.01-2.95 2.4-6.2 5.33-7.4h0zm17.93-11.03h0c2.9-1.15 5.24.32 5.24 3.22h0c0 3-2.35 6.3-5.24 7.4h0c-2.94 1.15-5.33-.28-5.33-3.22h0c0-2.94 2.4-6.25 5.33-7.4h0zm-36.46 21.73h0c2.94-1.15 5.33.32 5.33 3.22h0c0 2.94-2.4 6.3-5.33 7.4h0c-2.94 1.15-5.3-.28-5.3-3.22h0c0-2.95 2.35-6.25 5.3-7.4h0z" class="H"/><path d="M185.62 689.1l39.78 23 10.96-3.1v11.04c0 .97-.7 1.9-1.84 2.6h0l-44.9 26h-.14c-.92.42-2.12.7-3.4.7h0c-1.3 0-2.44-.28-3.4-.7h-.1l-.23-.14-.5-.28-48.3-28c-1.1-.65-1.8-1.57-1.8-2.63v-10.95a426.04 426.04 0 0 0 10.59 3.33l36.06-20.87c1-.5 2.26-.8 3.6-.8h0c1.34 0 2.58.28 3.6.8h.05" class="I"/><path d="M185.62 686.1l39.78 23 10.96-3.1v10.97c0 1-.7 1.94-1.84 2.63l-44.9 25.94h-.14c-.92.42-2.12.7-3.4.7h0c-1.3 0-2.44-.28-3.4-.7h-.1l-.23-.14c-.18-.1-.37-.18-.5-.32l-48.3-27.88v-.05c-1.1-.65-1.8-1.52-1.8-2.53v-11l10.6 3.36 35.36-20.46c.18-.14.4-.28.6-.37l.1-.05c1-.46 2.26-.78 3.6-.78h0a8.74 8.74 0 0 1 3.59.78h.05" class="M"/><path d="M185.62 675.24l48.9 28.27v.05c1.15.6 1.84 1.57 1.84 2.58h0c0 1-.7 1.94-1.84 2.58l-44.9 26h-.14c-.92.42-2.12.7-3.4.7h0c-1.3 0-2.44-.28-3.4-.7h-.1l-.23-.18c-.18-.05-.37-.18-.5-.28l-48.3-27.94c-1.1-.65-1.8-1.57-1.8-2.58h0c0-1 .7-1.94 1.8-2.58l44.15-25.55.6-.32.1-.05c1-.5 2.26-.74 3.6-.74h0c1.34 0 2.58.23 3.6.74h.06" class="L"/><path d="M385.68 563.85l42.18 24.34 11.65-3.27v11.6c0 1.1-.74 2.07-1.93 2.76l-47.66 27.52h-.14c-1 .46-2.3.74-3.64.74h0c-1.34 0-2.62-.28-3.64-.74h-.05l-.28-.14c-.18-.1-.37-.18-.5-.32L330.4 596.8v-.05c-1.2-.7-1.98-1.66-1.98-2.7V582.4l11.28 3.54 37.53-21.67c.18-.18.4-.28.6-.37l.14-.05a8.88 8.88 0 0 1 3.78-.83h0c1.47 0 2.76.32 3.82.83h.1" class="I"/><path d="M182.5 696.33h0c-6.56.28-11.64 4.33-11.4 9.02h0c.32 4.65 5.87 8.2 12.47 7.87h0c6.56-.28 11.7-4.33 11.4-9.02h0c-.32-4.7-5.9-8.24-12.47-7.87h0zm2.5-7.55l-5.87.28c-.8.05-1.4.5-1.34 1.06l.1 1.9a22.63 22.63 0 0 0-5.41 1.89l-1.94-1.24c-.55-.37-1.48-.32-2 .1l-3.97 3.18c-.5.4-.46 1 .1 1.38l2 1.24c-1.02 1.24-1.7 2.58-2.08 4l-2.63.14c-.8.05-1.4.5-1.34 1.06l.28 4.2c.05.55.7.97 1.43.92l2.63-.14c.55 1.38 1.43 2.67 2.54 3.82l-1.76 1.38c-.5.4-.5 1.06.05 1.43l4.34 2.76c.6.32 1.48.28 2-.1l1.8-1.43c1.7.7 3.6 1.15 5.6 1.38l.14 1.84c.05.55.65.97 1.43.92l5.87-.28c.8 0 1.4-.5 1.34-1.06l-.1-1.9c1.94-.37 3.8-1 5.4-1.84l1.94 1.2c.55.4 1.48.32 2-.05l3.93-3.18c.55-.4.5-1-.05-1.43l-1.94-1.2c.97-1.24 1.66-2.58 2.03-4.05l2.63-.14c.8 0 1.4-.5 1.34-1l-.23-4.2c-.1-.55-.74-.97-1.48-.92l-2.63.1c-.55-1.38-1.43-2.67-2.54-3.77l1.8-1.43c.5-.4.46-1.06-.1-1.38l-4.34-2.76c-.6-.4-1.43-.32-2 .05l-1.76 1.47c-1.76-.7-3.6-1.15-5.64-1.38l-.1-1.9c-.04-.54-.68-.9-1.47-.9h0z" class="H"/><path d="M385.46 560.13l42.27 24.4 11.66-3.28v11.63c0 1.1-.78 2.08-1.94 2.77l-47.76 27.6h-.14c-1 .46-2.26.7-3.64.7h0c-1.34 0-2.58-.23-3.6-.7h-.1l-.23-.14c-.23-.1-.37-.23-.55-.32l-51.3-29.66c-1.2-.7-1.94-1.66-1.94-2.72V578.7l11.25 3.55 37.62-21.73c.18-.14.4-.23.6-.32l.14-.05c1.06-.5 2.35-.83 3.83-.83h0c1.43 0 2.72.32 3.78.83h.05" class="K"/><path d="M385.46 548.37l52 29.9v.05c1.15.64 1.94 1.66 1.94 2.76h0c0 1.06-.78 2.02-1.94 2.7h0L389.7 611.3h-.14c-1 .46-2.26.74-3.64.74h0c-1.34 0-2.58-.28-3.6-.74h-.1l-.23-.14c-.23-.1-.37-.23-.55-.32l-51.3-29.6c-1.2-.7-1.94-1.66-1.94-2.76h0c0-1.06.74-2.02 1.98-2.72l47.62-27.43c1.06-.5 2.35-.83 3.83-.83h0c1.43 0 2.72.32 3.78.83h.05" class="J"/><path d="M386.75 582.37h0c-2.87 2-2.1 5.93 1.7 8.8h0c3.8 2.87 9.22 3.6 12.05 1.62h0c2.87-2 2.13-5.88-1.7-8.75h0c-3.8-2.88-9.22-3.62-12.05-1.67m-4.42-3.1h0c-3.08 2.16-3.54 5.7-1.65 9.18l-4.73.32c-2.62-4.77-1.93-9.7 2.3-12.58h0c4.23-2.94 11.03-3.2 17.6-1.1l-.6 3.44c-4.82-1.56-9.8-1.38-12.87.73h-.05m-8-6.22h0c-5.35 3.72-6.18 9.9-2.9 16l-8.2.46c-4.52-8.32-3.4-16.74 3.97-21.84h0c7.38-5.06 19.2-5.47 30.6-1.8l-1.1 5.9c-8.3-2.68-16.93-2.4-22.33 1.28" fill="#58bbe2"/><path d="M386.02 545.7l39.78 22.95 10.96-3.1v11c0 .97-.7 1.94-1.84 2.53l-44.9 26h-.14c-.97.46-2.12.74-3.4.74h0c-1.3 0-2.44-.28-3.4-.74h-.05l-.28-.1c-.18-.14-.37-.23-.5-.32l-48.3-27.92c-1.1-.65-1.8-1.57-1.8-2.58v-11l10.6 3.36 35.36-20.46c.23-.14.4-.23.6-.32l.1-.05h.05c.97-.46 2.2-.78 3.54-.78h0c1.34 0 2.62.32 3.6.78h.06" class="M"/><path d="M386.02 534.65l48.9 28.27c1.15.65 1.84 1.57 1.84 2.58h0c0 1.06-.7 1.98-1.84 2.63l-44.9 26h-.14c-.97.37-2.12.65-3.4.65h0c-1.3 0-2.44-.28-3.4-.65H383l-.28-.18-.5-.28-48.3-27.94c-1.1-.65-1.8-1.57-1.8-2.63h0c0-.97.7-1.9 1.8-2.54L378.07 535c.23-.14.4-.23.6-.32l.1-.05h.05c.97-.5 2.2-.78 3.54-.78h0c1.34 0 2.62.28 3.6.78h.07" class="L"/><path d="M382.67 555.93h0c-6.6.28-11.7 4.37-11.37 9.02h0c.28 4.7 5.82 8.24 12.43 7.92h0c6.56-.32 11.7-4.37 11.37-9.07h0c-.28-4.64-5.87-8.2-12.43-7.87h0zm2.5-7.55l-5.87.32c-.8 0-1.4.5-1.4 1l.14 1.93c-2 .37-3.74 1.06-5.4 1.84l-1.94-1.2c-.55-.4-1.48-.32-2 .05l-3.97 3.18c-.5.4-.46 1.06.1 1.38l1.94 1.24c-.97 1.24-1.66 2.62-2.03 4.05l-2.63.1c-.74.05-1.4.55-1.34 1.1l.28 4.14c.05.55.7.97 1.43.97l2.63-.18c.6 1.38 1.43 2.72 2.54 3.82l-1.76 1.43c-.55.4-.5 1 .05 1.38l4.34 2.76c.55.37 1.48.32 2-.05l1.8-1.47c1.66.7 3.6 1.15 5.6 1.38l.14 1.9c.05.55.7.92 1.43.92l5.9-.32c.74 0 1.34-.5 1.3-1l-.1-1.9c1.94-.4 3.74-1.06 5.45-1.9l1.9 1.24c.55.37 1.43.28 1.94-.1l4.02-3.13c.55-.4.46-1.06-.1-1.43l-1.94-1.24c.97-1.24 1.66-2.58 2.03-4.05l2.63-.1c.8-.05 1.4-.5 1.34-1.06l-.23-4.2c-.05-.55-.74-.92-1.52-.92l-2.6.14c-.55-1.38-1.43-2.67-2.54-3.82l1.8-1.43c.5-.37.46-1-.1-1.38L396.1 551c-.55-.37-1.43-.32-2 .1l-1.76 1.43c-1.76-.7-3.65-1.1-5.64-1.38l-.14-1.84c.03-.6-.66-.96-1.4-.96h0z" class="H"/><path d="M187.05 674l35.8 20.7 9.9-2.8v9.9c0 .92-.65 1.75-1.66 2.3h0l-40.5 23.4h-.1c-.83.37-1.94.6-3.1.6h0c-1.15 0-2.2-.23-3.04-.6h-.1l-.18-.14c-.18-.05-.32-.14-.5-.23L140.1 702v-.1c-.97-.55-1.6-1.34-1.6-2.26v-9.9l9.54 3 31.9-18.43c.14-.1.32-.18.5-.28l.1-.05c.92-.46 2.03-.7 3.23-.7h0c1.2 0 2.35.23 3.27.7h.03" class="K"/><path d="M187.05 664l44.05 25.44v.05c1 .55 1.66 1.38 1.66 2.3h0c0 .92-.65 1.8-1.66 2.35l-40.5 23.36h-.1c-.83.4-1.94.65-3.1.65h0c-1.15 0-2.2-.23-3.04-.65h-.1l-.18-.1-.5-.28L140.1 692v-.05c-.97-.55-1.6-1.38-1.6-2.3h0c0-.92.65-1.75 1.6-2.3l39.8-23c.14-.1.32-.23.5-.28l.1-.1c.92-.4 2.03-.65 3.23-.65h0c1.2 0 2.35.23 3.27.65h.04" class="J"/><path d="M177.66 683.42h0c.1-.46-.23-.92-.7-.92l-9.16-.6c-.46 0-.92.32-.97.82h0a.77.77 0 0 0 .69.92l9.12.55c.45.05.92-.32 1-.77h0zm27.3 1.7h0c.1-.46-.18-.87-.64-.87l-9.16-.6c-.46-.05-.92.32-1 .78h0c-.05.46.23.92.74.92l9.07.6a1 1 0 0 0 1-.83h0zm3.27 5.36h0c.28-1.5-.37-3.57-1.47-4.44V686c.37-1.88-.92-3.53-2.8-3.67l-7.6-.5c-1.9-.1-3.64 1.37-4 3.25l-.46 2.75c-.28 1.56.55 2.98 1.84 3.44h0c-5.9 1.65-11.7 1.24-17.36-1.33h0a3.94 3.94 0 0 0 2.4-2.93l.46-2.75c.37-1.88-.92-3.53-2.76-3.62l-7.65-.5c-1.9-.1-3.68 1.33-4.05 3.2v.1c-1.34.7-2.67 2.6-2.95 4.17h0c-.4 2.38 1.7 3.25 3.5 4.58h0c9.2 6.64 20.63 9.53 37.95 2.38h0c2.26-.92 4.6-1.65 4.98-4.08h0z" class="H"/><path fill="#ebbc86" d="M243.36 522.66h0s-7.22-1.25-11.25-2.73h0c-3.98-1.53-10.74-7.26-11.48-9.53h0c-.8-2.27-1.76-11.52 0-13.5h0c1.76-2.03 8.24 5 10.88 7.2l2.64 2.27s-2.04-6-1.53-7.5h0c.5-1.48 3.52-1.76 7.03 2h0c3.47 3.75 12.77 12.02 12.77 12.02l-9.06 9.76"/><path d="M304.07 764.14l-2.43 1.62s-5.65.8-12.07-.83h0c-6.47-1.62-13.68-1.2-12.5 4.86h0c1.24 6.15 11.66 11 16.07 13.05h0c4.5 2.04 13.36 4.86 14.55 6.52h0c1.2 1.57 3.26 4.02 10.1 2.4h0c6.84-1.62 7.12-4.44 7.12-4.44V762.1l-20.85 2.04m39.82-19.1h0s-8.1-4.07-10.97-3.7h0c-2.8.46-6.04 4.9 0 11.4h0c6.13 6.5 8.52 9.33 10.97 14.18h0c2.44 4.85 4.05 8.55 9.72 8.13h0c1.66-.1 3.27-.55 4.7-1.1h0c3.55-1.4 5.85-4.85 5.85-8.7V752.3l-17.32-8.1-2.95.84" fill="#252b63"/><path fill="#130c0e" d="M287.85 608.35l-1.9 6.13s.65 35.92 6.32 61.85h0c5.67 25.88 9.3 89.43 9.3 89.43h0s1.2 6.03 8.95 6.45h0c7.7.4 15.35-4.42 15.35-4.42h0s1.24-37.62 0-59.87h0c-1.2-22.3-2.54-35.64.55-46.97h0s2.72 24.68 6.73 39.65h0c4.1 15 7.75 41.3 9.3 52.6h0s1.66 7.28 7.75 7.28h0c6.04 0 8.07-1.15 12.13-6.03h0s2.03-36 1.6-51.8h0c-.4-15.75-8.9-37.62-8.9-37.62h0s2.03-57 1.2-72.44h0c-.78-15.38-27.94-26.3-27.94-26.3l-40.48 42.07"/><path fill="#362f4e" d="M308.2 461.72h0s-12.93 4.9-20.62 12.17h0c-7.64 7.28-6.8 21.06-7.64 32h0c-.83 10.97-2.44 18.2-2.44 18.2h0s-21.04-12.54-23.48-13.37h0s-13.3 2.86-10.08 15.8h0l25.1 17.42c8.88 6.08 16.94 11.34 22.55 11.34h0s-1.98 11.34-5.62 25.12h0c-3.68 13.78-2.44 32.77-2.44 32.77h0s14.55 8.1 27.53 6.9h0c12.9-1.2 18.18-5.25 18.18-5.25l6.03-24.34v20.24s15-7.24 21.04-18.2h0s-.78-22.63-2.44-30.38h0c-4.28-20.37 27.57-51.3 4.88-102.42h0c-3.22-7.33-16.2-14.2-29.5-7.74l-21.03 9.73"/><path d="M223.22 755.17h0c17 8.1 30.18 9.35 39.53 3.6h0c-15.02 11.75-29.76 11.84-44.2.23h0c-4.47-1.52-10.04-.1-16.63 4.28h0c-.14.88-.7 1.6-1.66 2.07h0l-41.74 24.32c-4.2 1.06-7.33-.92-9.5-6.04h0l47.32-22.76c11.98-7.67 20.92-9.56 26.86-5.7" class="I"/><path d="M144.95 735.1l-34.55 20 9.3 5.4 34.08-19.75-8.84-5.65" class="H"/><path fill="#dc653d" d="M222.5 710.7h0c11.33-19.07 30.35-28.65 42.5-21.42l10.6 6.08-4.05 6.72c-.7-1-1.43-1.98-2.3-2.86h0c-10.27-3.32-24.46 4.65-33.16 19.3h0c-8.7 14.65-8.94 30.9-1.06 38.37h0c1 .32 2.07.5 3.18.64l-3.96 6.54-10.18-5.8c-12.17-7.22-12.86-28.54-1.57-47.57"/><path fill="#b34626" d="M235.02 757h0c10.26 3.32 24.44-4.66 33.14-19.3h0c8.7-14.7 8.93-30.93 1.06-38.4h0c-10.26-3.32-24.44 4.66-33.14 19.3h0c-8.7 14.66-8.93 30.93-1.06 38.4h0zm-2.34-40.42h0c11.32-19.08 30.3-28.62 42.48-21.43h0c12.1 7.24 12.8 28.53 1.56 47.6h0c-11.32 19.08-30.3 28.67-42.48 21.43h0c-12.15-7.24-12.84-28.53-1.56-47.6h0z"/><path fill="#772f17" d="M268.08 737.57h0c8.7-14.67 8.92-30.87 1.06-38.32h0c-4.5-1.43-9.7-.74-14.9 1.7h0c6.35-3.04 12.8-3.4 17.8-.4h0c10.3 6.12 11 24.15 1.47 40.25h0c-9.52 16.05-25.67 24.15-36.02 18h0c-.92-.55-1.75-1.2-2.53-1.93h0c10.27 3.3 24.44-4.65 33.13-19.28"/><path fill="#adb3d9" d="M238.05 757.62h.05c-1.06-.14-2.12-.32-3.14-.64h0c1.02.32 2.03.55 3.1.64h0zm-3.1-.65h0zm36.55-54.77v-.05c-.7-1-1.43-1.98-2.3-2.8h0c.88.88 1.62 1.85 2.3 2.86h0z"/><path fill="#a1b2d6" d="M239.95 757.86h0zm-4.92-.74h0c-3.78-3.6-5.7-9.23-5.7-15.74h0c0 6.5 1.93 12.14 5.7 15.74h0zm1.06-38.44h0c.05-.1.1-.14.14-.23h0c-.05.1-.1.14-.14.23h0zm33.14-19.34h0-.05.05z"/><path fill="#9badcd" d="M239.9 757.62h0c-.6 0-1.2-.05-1.8-.1h0c-1.06-.1-2.08-.32-3.1-.64h0-.05c1.57.45 3.24.73 4.95.73h0zm28.24-19.94h0l.1-.1c4.53-7.6 6.75-15.65 6.75-22.65h0c0 7-2.22 15.05-6.75 22.65h0c-.04.05-.1.1-.1.1h0zm-13.82-36.74h0c2.6-1.24 5.22-2.03 7.77-2.3h0a19.21 19.21 0 0 1 2.27-.14h0c1.7 0 3.33.23 4.9.74h0c-1.57-.5-3.2-.74-4.9-.74h0c-2.9 0-5.92.7-8.92 1.98h0c-.38.14-.75.28-1.12.46h0z"/><path d="M219.87 742.04h0c-1.2-2.08-3.27-3.1-4.6-2.3l-23.4 13.68 4.47 7.44 23.4-13.64c1.28-.78 1.37-3.1.13-5.17" class="L"/><path fill="#dc653d" d="M199.03 754.62h0c-2.17-3.64-5.8-5.48-8.12-4.1l-41.5 24.1 7.9 13.13 41.42-24.04c2.35-1.38 2.48-5.44.32-9.08"/><path fill="#9492a0" d="M149.17 783.78h0c2.17 3.66 5.82 5.5 8.13 4.12h0c2.36-1.4 2.5-5.47.32-9.13h0c-2.17-3.66-5.82-5.5-8.13-4.12h0c-2.35 1.4-2.5 5.47-.32 9.13"/><path fill="#b5b3bd" d="M150.4 782.92h0c1.42 2.32 3.75 3.5 5.26 2.6h0c1.5-.86 1.6-3.5.23-5.82h0c-1.42-2.36-3.75-3.55-5.26-2.68h0c-1.55.9-1.6 3.54-.23 5.9"/><path fill="#703624" d="M351.43 429.77h0c-.16-.1-.27-.2-.43-.3h0l.43.3"/><path fill="#eda763" d="M337.75 458.8h0l-.74 1.93c-2.26-.18-4.53-.74-6.6-1.06h0c0-.05 0-.05-.05-.05h0l-3.42-.87c-.97-.32-1.94-.7-2.9-1.2h0c-3.93-1.93-7.16-3.95-7.95-8.6h0c.5-1.84 1.06-3.5 1.62-4.87h0c.1.14.23.23.37.28h0c1.3 5.88 2.63 7.86 7.67 9.88h0c3.38 1.32 7.82 3.53 12.02 4.54"/><path fill="#efba84" d="M336.9 460.76h0l-.8 2.38c-.75-.92-1.6-1.7-2.52-2.24h0c-.98-.46-2.15-.87-3.36-1.2h0l6.67 1.05"/><path fill="#703624" d="M344.18 425.02h0l.08.9c-.06-.33-.1-.62-.08-.9"/><path d="M313.68 459.46h0l.37-1.52 2.1-8.92c.7 3.95 3.1 6.02 6.22 7.77h0c2.88.05 6.44.46 10.6 1.33h0c1.83 1.1 2.83 2.8 3.1 5.06h0c-8.4 6.08-15.86 4.84-22.4-3.72m9.43-21.66h0c-1.24 2.9-3.3 7.1-5.1 6.55h0c-.14-.05-.28-.14-.37-.28h0a240.97 240.97 0 0 0 2.84-10.42h0c1.8-2.54 5.27-3.23 3.58 1.8h0c-.2.37-.5 1.3-.96 2.35m-3.6-18.18h0c-4.6 6-4.7 17.02-7.15 21.8h0c-1.44-2.3-1.76-4.36-4.04-5.55h-.05c1.1-4.36 3.76-6.1 4.87-11.24h0c.46-2.06 1.1-5.1 2-8.03l.1-.1c1.22 1.2 2.7 2.25 4.28 3.12" fill="#efba84"/><path fill="#42180f" d="M304.67 453.64h0c-2.85-3.32-3.6-8.06 1.7-12.43h0c-.28-.32-.37-.74-.32-1.24h0c.14-1.2 1.15-2.8 2.2-4.05h.05c2.26 1.2 2.58 3.27 4 5.57h0c2.44-4.8 2.53-15.84 7.1-21.87l.37-.55-.37.55c-1.57-.87-3.08-1.93-4.23-3.13h0c-3.54-3.5-4.8-8.3-.1-14h0c3.68-4.47 7.14-3.45 11.5-.64h0c2.4 1.3 5.48 1.75 8.3 2.35h0c2.03.14 3.77.5 5.02.97h0c1.33.46 2.85 1.1 4.47 1.84h0c3.87 1.75 8.15 4.14 10.5 6.77h0c3.4 3.96 5.7 10.4 5.2 15.47h0c-.18 1.24-7.4 14.92-13.44 20.58h0c-.7.7-1.38 1.34-2.07 1.98h0c-1.1 2.2-1.3 4.93-.7 7.32h0c-1.9.4-4 .28-6.2-.23h0c-4.2-1-8.6-3.22-11.97-4.56h0c-5.02-2.03-6.35-4-7.64-9.9h0c1.8.55 3.87-3.64 5.1-6.54h0a62.91 62.91 0 0 0 .97-2.35h0c1.7-5.02-1.8-4.33-3.6-1.8h0c-.87 3.5-1.84 7-2.85 10.4h0c-.55 1.38-1.1 3.04-1.6 4.88h0c-.78 2.72-1.47 5.8-2.12 8.93h0c-3.2.1-7-1.65-9.3-4.33h0zm3.78-9.07h0c.14.4.28.78.32 1.1h0c-.05-.3-.2-.68-.32-1.1h0zm14.82-5.84h0c.1.55.23 1.15.5 1.7h0c-.28-.55-.42-1.15-.5-1.7h0z"/><path d="M453.84 432.92h9.54l.46 1a.3.3 0 0 0 .1.18h0l.46.97c.05.1.1.14.1.18h0l.55 1h.05l.6.97c.1.05.14.14.18.18h0l.7.97c.05.05.14.1.18.18h0c.18.28.37.5.6.78h0c.1.05.18.14.28.28h0l.7.74c.1.05.14.14.18.18h0c.37.32.7.65 1 .97l.05 7.88 7.28 4.3 6.82-3.96 2.26.78a7.94 7.94 0 0 1 .69.23h0l1.2.37c.23.05.55.14.78.23h0l1.24.32c.28.1.5.14.78.18h0l1.48.37c.14 0 .37.1.55.1h0l2.03.42c.46.1.88.14 1.3.18h0l.65.14 1.9.28v5.53h20.05l.05-5.53 1.43-.23c.46-.05.92-.14 1.38-.23h0c.23 0 .5-.05.74-.1h0l1.6-.32c.14-.05.32-.05.5-.1h0l2.17-.46c.23-.05.4-.14.6-.18h0l1.6-.4c.23-.05.46-.14.74-.23h0l1.43-.46.65-.14 2.03-.74 6.73 3.96 7.47-4.38v-7.8c2.26-2.03 3.96-4.15 5.16-6.36h0c.4-.74.78-1.52 1.06-2.26h9.6l.05-11.62.05 20.1-.05 11.62h-9.08l.05 12.54-14.24 8.2-6.73-3.92-2.03.7c-.18.05-.4.14-.65.18h0c-.46.18-.92.32-1.43.46h0c-.1.05-.23.05-.37.14h0c-.1 0-.23.05-.32.1h0l-1.6.4-.6.14-2.2.5h-.1c-.14.05-.28.05-.4.1h0l-1.6.32c-.23 0-.5.1-.74.1h0l-1.38.28c-.14 0-.28 0-.37.05h0c-.37 0-.74.05-1.06.14l-.05 5.53h-20.05l-.05-5.58-1.84-.23-.65-.14-1.2-.18h-.05l-2.07-.42c-.18-.05-.37-.1-.55-.1h0a8.9 8.9 0 0 0-1.48-.37h0l-.78-.18c-.37-.14-.83-.23-1.24-.32h0l-.74-.28-1.24-.32-.46-.14c-.1-.05-.14-.05-.23-.1h0l-2.26-.78-6.82 3.92-14.1-8.2-.05-12.54h-8.85l-.05-20.1" class="I"/><path d="M462.96 404.62l6.87 3.92.04 20.04-6.82-3.92-.1-20.04m84.97 3.92l6.87-3.92.04 20.04-6.86 3.92-.05-20.04" class="K"/><path d="M367.92 480.04h7.42c.1.28.18.55.32.78h0c0 .05.05.1.05.14h0c.14.23.23.5.37.78h0l.1.1.4.78h.05a4.2 4.2 0 0 0 .46.74h0c.05.05.1.14.14.18h0l.5.74c.05 0 .1.1.18.14h0c.1.18.28.37.46.6h0l.18.18.55.6.14.14c.28.23.5.5.78.78v6.08l5.67 3.27 5.25-3.04c.55.23 1.1.4 1.7.6h0c.18.05.37.1.55.18h0c.32.1.64.14.92.28h0c.23.05.4.1.6.18h0c.32.05.64.14 1 .23h0l.55.14 1.15.28c.14.05.28.05.4.1h0l1.6.32.97.14a1.5 1.5 0 0 0 .46.09h0l1.47.23v4.3h15.43l.05-4.3 2.22-.36c.18 0 .37-.05.55-.1h0c.4-.05.83-.14 1.24-.23h0c.14 0 .23-.05.37-.1h0a20.66 20.66 0 0 0 1.7-.37h0c.18 0 .32-.1.46-.1h0c.4-.14.83-.23 1.24-.32h0l.55-.18 1.1-.32c.14-.05.32-.1.5-.14h0l1.57-.55 5.16 3.04 5.8-3.36-.05-6c1.75-1.6 3.1-3.23 4-4.93h0l.83-1.75h7.37l.05-8.94.05 15.5-.05 9-7-.05v9.68l-10.96 6.36-5.2-3.04-1.52.55-.5.14-1.1.37c-.1 0-.18 0-.28.05h0c-.1.05-.18.05-.28.1h0c-.4.14-.83.18-1.24.32h0l-.46.14-1.7.37h-.05c-.1.05-.23.05-.32.05h0l-1.24.23c-.18.1-.4.1-.6.14h0l-1.06.14c-.1.05-.23.05-.28.05h0l-.83.14-.05 4.3H402.3v-4.3l-1.43-.23c-.18 0-.32-.05-.5-.1h0c-.28-.05-.6-.05-.92-.14h0l-1.6-.32c-.18-.05-.28-.05-.4-.1h0l-1.15-.23-.55-.18c-.37-.1-.7-.14-1-.28h0l-.6-.14-.92-.28c-.1-.05-.23-.1-.32-.1h0c-.1-.05-.14-.1-.23-.1h0l-1.7-.6-5.25 3.04-10.92-6.36v-9.68l-6.86.05-.03-15.57m80.4 31.75h7.42l.32.78c0 .05.05.1.05.14h0l.37.74c.05.05.05.1.1.14h0l.4.74c0 .05.05.05.05.05h0a4.2 4.2 0 0 0 .46.74h0l.14.14c.14.28.32.5.5.74h0c.05.05.1.14.14.18h0c.14.18.32.37.5.55h0c.05.1.14.18.18.23h0c.14.23.37.4.55.6h0l.14.14c.28.23.5.5.78.74v6.08l5.62 3.27 5.25-3 1.75.55c.18.1.37.14.55.23h0c.28.05.6.18.92.23h0l.6.18.97.28c.23.05.4.05.6.14h0l1.1.28c.14 0 .32.05.46.1h0l1.57.32 1 .14c.14 0 .32.05.46.1h0l1.47.23.05 4.24h15.4l.05-4.24a8.55 8.55 0 0 1 1.11-.18h0l1.06-.18c.18 0 .4-.05.6-.1h0l1.24-.23c.14-.05.23-.05.37-.1h0a20.66 20.66 0 0 0 1.7-.37h0l.46-.14 1.24-.32.55-.14 1.1-.32.46-.18c.55-.14 1.06-.32 1.6-.5l5.16 3 5.8-3.3-.05-6.03c1.75-1.57 3.1-3.18 4-4.93h0c.32-.55.6-1.15.78-1.7h7.37l.1-8.98.05 15.52-.05 8.93h-7v9.67l-10.96 6.3-5.2-3.04c-.5.23-1 .4-1.57.6h0c-.14 0-.28.1-.46.14h0c-.37.14-.74.23-1.1.32h0c-.1.05-.18.1-.28.1h0c-.1.05-.18.05-.28.05h0l-1.3.37c-.1.05-.28.1-.4.1h0l-1.7.4h-.05c-.1 0-.23.05-.32.05h0l-1.24.28c-.18 0-.4.05-.6.05h0l-1.06.18c-.1.05-.23.05-.28.05h0c-.28.05-.55.1-.83.1l-.05 4.33h-15.4V543l-1.47-.18c-.18-.05-.32-.1-.5-.1h0l-.92-.14v-.05c-.55-.05-1.1-.18-1.6-.28h0c-.18-.05-.28-.1-.46-.1h0l-1.66-.42-1-.23c-.18-.1-.37-.14-.6-.23h0c-.28-.05-.64-.18-.92-.23h0c-.1-.05-.23-.1-.37-.14h0a.3.3 0 0 1-.18-.1h0c-.6-.14-1.15-.37-1.7-.6l-5.25 3.04-10.92-6.3v-9.67h-6.86l-.05-15.5" class="I"/><path d="M528.4 442.24h0V442c-.05-.14-.05-.23-.1-.32h0c0-.1 0-.18-.05-.28h0c0-.05 0-.18-.05-.28h0a.4.4 0 0 0-.09-.23h0a.58.58 0 0 0-.09-.28h0c0-.1-.05-.18-.1-.28h0l-.14-.28c0-.1-.05-.18-.1-.28h0l-.14-.28c-.05-.1-.1-.14-.14-.28h0a.67.67 0 0 1-.18-.32h0c-.1-.05-.14-.14-.14-.18h0c-.14-.14-.23-.28-.32-.4h0c0-.05-.1-.1-.1-.14h0l-.5-.6c-.1-.05-.14-.1-.14-.14h0c-.18-.14-.32-.28-.46-.46h0c-.1-.05-.14-.14-.23-.18h0c-.1-.1-.18-.14-.28-.23h0l-.28-.28c-.1-.05-.23-.14-.28-.18h0c-.14-.1-.18-.18-.32-.28h0l-.32-.18c-.1-.1-.23-.14-.32-.23h0c-.1-.1-.23-.14-.37-.23h0l-.46-.28-.88-.5c-.1 0-.18-.05-.28-.1h0c-.23-.14-.46-.23-.74-.37h0c-.05-.05-.14-.05-.23-.1h0l-.97-.4c-.05 0-.1 0-.18-.05h0c-.28-.1-.55-.23-.83-.28h0c-.14-.1-.28-.1-.37-.14h0l-.46-.14c-.18-.05-.28-.1-.4-.14h0l-.5-.14c-.14 0-.28-.05-.4-.1h0a1.5 1.5 0 0 0-.46-.09h0c-.14-.05-.28-.1-.46-.1h0a1.55 1.55 0 0 0-.51-.09h0c-.1-.05-.23-.1-.37-.1h0l-1.1-.18h-.18c-.32-.1-.64-.1-.97-.14h0c-.14 0-.23 0-.37-.05h0c-.23 0-.4 0-.64-.05h0c-.1 0-.23 0-.37-.05h0-.64c-.14 0-.28 0-.4-.05h0-1.88l-1.9.14h-.05l-1.84.18c-.1 0-.14 0-.18.05h0c-.28.05-.55.1-.78.1h0c-.14.05-.23.05-.37.05h0c-.18.1-.4.1-.6.14h0c-.1.05-.18.05-.32.05h0c-.18.1-.4.14-.64.18h0c-.1.05-.23.05-.32.1h0l-.6.14c-.14.05-.23.05-.37.14h0c-.32.05-.64.18-.92.28h0c-.05 0-.1.05-.18.05h0c-.32.14-.7.23-1 .37h0c-.1.05-.14.05-.18.1h0l-1.34.55c0 .05-.05.05-.14.05h0l-1.24.7c-3.87 2.25-5.8 5.15-5.8 8.04l-.05-20c0-2.94 1.93-5.84 5.8-8.1h0l1.24-.64c.05-.05.1-.05.14-.1h0l1.3-.55c.05 0 .1-.05.14-.05h0s.05 0 .1-.05h0c.32-.14.7-.23 1-.37h0c.05-.05.14-.05.18-.05h0c.28-.14.6-.18.92-.28h0c.05-.05.1-.05.14-.05h0c.05-.05.14-.05.18-.1h0l.6-.14c.14 0 .28-.05.37-.1h0l.64-.14a.4.4 0 0 0 .23-.09h.1c.18-.05.4-.05.6-.1h0c.1 0 .23-.05.37-.05h0l.78-.14c.05 0 .05-.05.14-.05h0c.6-.1 1.24-.14 1.9-.18h.05l1.9-.1h2.25c.23 0 .46.05.64.05h.4c.23.05.4.05.64.05h0c.1 0 .14.05.23.05h.14l.97.14h.18l1.1.18s.05 0 .1.05h0c.1 0 .18 0 .28.05h0c.18 0 .37.05.5.05h0c.14.1.32.1.46.14h0c.14 0 .32.1.46.1h0l.4.14c.14.05.32.05.5.1h0c.1.05.23.1.37.14h0l.5.14c.05 0 .14.05.23.1h0s.05 0 .1.05h0c.18 0 .37.1.46.14v-21.93l.1 21.93c.1.05.18.1.32.14h0c.05.05.14.05.18.05h0l.97.4c.1.05.18.1.23.14h0c.28.1.5.18.74.32h0l.28.14.88.46.28.14c.05.05.14.1.18.18h0c.14.05.28.14.37.18h0c.1.1.23.14.32.23h0a1.49 1.49 0 0 0 .32.23h0c.1.05.18.14.32.23h0c.05.1.18.14.28.23h0c.1.05.18.14.28.23h0a1.18 1.18 0 0 0 .28.23h0c.05.05.1.05.14.1h0c0 .05.05.1.05.1h0c.18.14.32.32.46.46h0l.14.14c.23.18.37.4.55.6h0v.05a.42.42 0 0 1 .1.14h0l.28.37.14.23a.67.67 0 0 1 .18.32h0l.1.1c.05.05.05.1.05.14h0c.1.1.14.23.18.28h0c.05.1.1.18.1.28h0l.14.28c0 .05.05.14.05.14h0c0 .05.05.1.05.14h0c.05.1.1.18.1.28h0c.05.1.05.18.1.28h0c.05.05.05.18.05.28h0c.05.05.05.1.05.14h0v.1c.05.1.05.23.05.32h0c0 .1.05.14.05.23h0c0 .14.05.23.05.32h0v.32l.05 19.67c-.04-.1-.04-.2-.08-.28m-74.64-13.35h9.54c.18.32.28.65.46 1h0c0 .05.05.1.1.18h0a9.86 9.86 0 0 0 .46.92h0c.05.1.1.14.1.18h0l.55 1c.05 0 .05.05.05.05h0c.18.32.4.6.6.92h0c.1.05.14.14.18.18h0c.23.32.4.65.7.97h0c.05.05.14.14.18.23h0a7.39 7.39 0 0 0 .6.69h0a1.83 1.83 0 0 0 .28.32h0l.7.74 1.2 1.2.05 7.88 7.28 4.24 6.82-3.92 2.26.74c.18.1.46.18.7.23h0c.4.14.83.23 1.2.4h0l.78.18 1.24.32c.28.1.5.14.78.18h0l1.48.37c.14.05.37.1.55.1h0a18.3 18.3 0 0 0 2.03.42h0l1.3.23c.23 0 .4.1.65.1h0l1.9.28v5.53h20.05l.05-5.53L520 449l1.38-.18.74-.14 1.6-.32c.14 0 .32-.05.5-.1h0l2.17-.46c.23-.05.4-.1.6-.18h0l1.6-.4c.23-.05.46-.14.74-.18h0c.46-.18.92-.28 1.43-.46h0c.23-.05.4-.14.65-.18h0l2.03-.7 6.73 3.92 7.47-4.33v-7.8c2.26-2.03 3.96-4.2 5.16-6.4h0l1.06-2.2h9.6l.05-11.66.05 20.1-.05 11.62h-9.08l.05 12.6-14.24 8.16-6.73-3.92-2.03.74-.65.18-1.43.42c-.1.05-.23.1-.37.14h0c-.1.05-.23.05-.32.1h0l-1.6.4-.6.14-2.2.5h-.1c-.14.05-.28.05-.4.1h0c-.5.14-1.06.23-1.6.32h0a3.74 3.74 0 0 1-.74.09h0l-1.38.23c-.14.05-.28.05-.37.1h0c-.37 0-.74.1-1.06.14l-.05 5.53h-20.05l-.05-5.58-1.84-.23c-.23-.05-.4-.1-.65-.1h0l-1.2-.23h-.05a15.19 15.19 0 0 1-2.07-.42h0c-.18 0-.37-.1-.55-.1h0l-1.48-.37-.78-.18-1.24-.32c-.23-.1-.5-.14-.74-.23h0l-1.24-.37-.46-.14c-.1-.05-.14-.05-.23-.1h0l-2.26-.78-6.82 3.92-14.1-8.16-.05-12.6h-8.85l-.05-20.05" class="K"/><path d="M494.8 430.92h0c7.66 4.46 20.06 4.46 27.76 0h0c7.66-4.37 7.7-11.6.05-16h0c-7.6-4.42-20-4.42-27.67 0h0c-7.7 4.42-7.75 11.64-.14 16h0zm-31.4-2.16h-9.55l.05-11.64h9.6c1.2-3 3.23-5.9 6.23-8.56l-6.78-3.9 14.25-8.2 6.78 3.96c4.6-1.75 9.68-2.9 14.9-3.6v-5.52h20.06v5.52c5.2.7 10.24 1.9 14.85 3.6l6.78-3.96 14.16 8.2-6.78 3.9c2.9 2.67 4.93 5.57 6.1 8.56h9.6l-.05 11.64H554c-1.15 3-3.27 5.9-6.23 8.6l6.78 3.9-14.25 8.2-6.73-3.9c-4.66 1.7-9.73 2.85-14.9 3.54l-.05 5.52h-20.06v-5.52c-5.2-.7-10.24-1.84-14.85-3.54l-6.83 3.9-14.1-8.2 6.78-3.9c-2.95-2.7-4.98-5.6-6.13-8.6h0z" class="J"/><g class="M"><path d="M376.44 456.1l5.2 3.03.04 15.4-5.18-2.98-.05-15.46m65.4 3.04l5.2-3.03.04 15.46-5.18 2.98-.05-15.4"/><path d="M426.8 485.1h0c-.05-.1-.05-.14-.05-.18h0c-.05-.1-.05-.14-.05-.23h0c0-.1-.05-.14-.05-.23h0c0-.05 0-.14-.05-.23h0c-.05-.05-.05-.14-.05-.18h0c-.05-.05-.05-.14-.1-.18h0c0-.1-.05-.14-.1-.23h0c0-.05-.05-.14-.05-.23h0c-.05-.05-.1-.14-.14-.18h0c0-.1-.05-.14-.1-.23h0c-.05-.05-.05-.14-.1-.18h0c-.1-.1-.14-.18-.18-.28h0c-.05-.05-.05-.1-.1-.14h0c-.1-.1-.14-.18-.23-.28h0c-.05-.05-.05-.1-.1-.14h0c-.14-.18-.23-.32-.42-.46h0c0-.05-.05-.1-.1-.1h0c-.1-.14-.23-.23-.32-.37h0a.66.66 0 0 1-.14-.18h0c-.1-.05-.18-.1-.23-.14h0c-.1-.1-.14-.14-.23-.18h0c-.1-.1-.18-.14-.23-.18h0c-.1-.05-.14-.1-.23-.18h0c-.1-.05-.18-.14-.28-.18h0a.56.56 0 0 1-.18-.14h0c-.14-.05-.23-.14-.32-.18h0c-.1-.1-.23-.14-.37-.23h0c-.18-.1-.46-.23-.65-.37h0c-.1 0-.14-.1-.23-.1h0l-.55-.28c-.1-.05-.14-.05-.18-.1h0l-.74-.28c-.05-.05-.14-.05-.14-.05h0l-.7-.28c-.1 0-.14-.05-.28-.05h0c-.1-.05-.23-.1-.32-.14h0c-.14 0-.23-.05-.37-.05h0c-.1-.1-.23-.1-.37-.14h0c-.1-.05-.18-.05-.32-.1h0c-.1 0-.23-.05-.37-.05h0c-.1-.05-.23-.1-.32-.1h0c-.14-.05-.23-.05-.37-.1h0c-.14 0-.23 0-.32-.05h0c-.28-.05-.6-.14-.88-.14h0-.1c-.28-.05-.5-.1-.74-.1h0c-.14 0-.23-.05-.32-.05h0c-.14-.05-.32-.05-.46-.05h0-.32c-.18 0-.32-.05-.5-.05h0-1.8l-1.43.05c-.5.1-.97.14-1.48.18h0-.14l-.6.14c-.1 0-.14.05-.23.05h0c-.18 0-.32.05-.5.1h0-.23c-.18.1-.32.1-.5.14h0c-.1 0-.18.05-.28.05h0c-.14.1-.28.1-.46.18h0c-.1 0-.18.05-.23.05h0c-.28.05-.5.14-.74.23h0-.14l-.78.32c-.1.05-.14.05-.18.1h0l-.97.4c-.05 0-.1.05-.1.05h0c-.37.14-.7.32-1.02.5h0c-3 1.75-4.48 4-4.48 6.27l-.05-15.52c0-2.26 1.48-4.47 4.48-6.22h0c.32-.18.65-.37 1.02-.5h0c0-.05.05-.05.05-.05h0l1.06-.46h.05c.05-.05.05-.05.1-.05h0l.78-.32c.05 0 .1 0 .14-.05h0l.74-.18c.05 0 .05-.05.1-.05h0c.05-.05.1-.05.14-.05h0a1.5 1.5 0 0 1 .46-.09h0c.1-.05.18-.1.28-.1h0c.18-.05.32-.1.5-.1h0c.05-.05.14-.05.18-.1h.1c.14 0 .28-.05.46-.1h0c.05 0 .14 0 .23-.05h0c.23 0 .42-.05.6-.1h.14c.46-.1.97-.14 1.48-.14h0c.5-.1.97-.1 1.48-.1h1.75c.14 0 .32 0 .5.05h.28c.18.05.37.05.5.05h.18c.05 0 .05.05.14.05h0c.23 0 .5.05.74.05h0c.05 0 .1 0 .1.05h0l.88.14h.1c.1 0 .14 0 .23.05h0c.14.05.23.05.37.1h0c.14 0 .23.05.32.05h0c.14.05.28.1.42.1h0c.1 0 .18.05.28.1h0c.14.05.28.05.37.1h0c.14 0 .23.05.32.1h0l.42.14h.14c.05.05.05.05.1.05h0l.37.14v-17l.05 17c.05.05.18.05.28.14h.14c.23.14.5.23.74.32h0c.05.05.1.05.18.1h0l.55.28c.1 0 .14.05.23.1h0c.23.14.46.23.7.37h0c.05 0 .1.1.18.1h0l.14.14c.1.05.18.1.28.18h0c.1.05.18.05.28.14h0c.05.05.14.14.23.18h0c.1.05.14.1.23.18h0c.05.05.14.1.23.14h0l.4.4c.05 0 .1.05.1.05h0c.05.05.05.1.1.1h0l.46.46c.14.14.28.32.37.42h0l.05.05c0 .05.05.1.05.14h0c.1.05.14.18.23.28h0c.05 0 .05.1.1.18h0c.1.05.14.14.18.23h0c0 .05.05.05.05.05h0c0 .1.05.1.05.14h0c.05.1.05.14.14.23h0c0 .05.05.1.05.18h0l.14.23v.1c.05.05.05.05.05.1h0c.05.1.05.18.1.23h0c0 .1.05.14.05.18h0c0 .1.05.14.05.23h0c.05.05.05.1.05.1h0v.1c0 .1.05.18.05.28h0v.18c0 .05 0 .14.05.23h0v.23l.05 15.25c-.05-.1-.05-.2-.05-.25m-57.44-10.34h7.37l.32.78c.05.1.05.14.1.14h0l.32.78c.05.05.1.1.1.14h0l.46.78.5.74c0 .05.05.1.1.14h0l.55.74.14.14c.14.23.32.4.46.6h0a.69.69 0 0 1 .18.23h0c.23.18.37.37.55.55h0c.05.05.14.14.18.14h0c.23.28.46.55.74.78l.05 6.08 5.67 3.27 5.2-3.04c.55.23 1.15.4 1.7.6h0c.23.05.4.14.55.18h0c.32.1.65.23.97.28h0l.6.18.97.28c.18.05.37.1.55.1h0c.37.14.78.23 1.15.28h0c.14.05.28.1.4.1h0l1.6.32.97.18c.18 0 .32.05.46.05h0l1.52.23v4.3h15.44v-4.3l1.1-.14a8.55 8.55 0 0 1 1.11-.18h0c.18-.05.37-.05.55-.1h0c.4-.1.83-.14 1.24-.28h0c.14 0 .28 0 .37-.05h0l1.7-.37.46-.14 1.24-.32.55-.14 1.1-.37.5-.14 1.57-.55 5.2 3.04 5.76-3.32v-6.04c1.7-1.57 3.04-3.23 3.96-4.93h0l.83-1.75h7.37l.05-8.94.05 15.53-.05 8.94h-7l.05 9.68-10.97 6.3-5.25-3-1.52.5c-.14.1-.32.1-.5.14h0l-1.1.37c-.1.05-.18.05-.28.1h0c-.1 0-.18.05-.28.1h0l-1.2.32c-.18 0-.32.05-.46.1h0l-1.7.37c-.05 0-.05 0-.1.05h0c-.1 0-.18 0-.32.05h0l-1.24.23c-.18.05-.37.05-.6.1h0l-1 .18c-.14 0-.23.05-.32.05h0c-.28.05-.55.1-.78.1l-.05 4.3h-15.5v-4.3l-1.43-.18c-.18-.05-.32-.1-.5-.1h0l-.92-.14-.05-.05-1.57-.28-.46-.14c-.37-.05-.78-.14-1.15-.23h0c-.18-.05-.37-.1-.55-.18h0c-.32-.05-.65-.14-.97-.23h0c-.23-.05-.4-.14-.65-.18h0c-.28-.1-.6-.14-.92-.28h0c-.1 0-.23-.1-.32-.1h0c-.05-.05-.14-.05-.18-.05h0l-1.75-.6-5.25 3-10.92-6.3v-9.68h-6.82l-.03-15.5"/></g><path d="M401 476.4h0c5.86 3.4 15.4 3.4 21.35 0h0c5.95-3.46 5.95-9 .1-12.4h0c-5.9-3.4-15.5-3.4-21.4 0h0c-5.95 3.4-5.95 8.95-.04 12.4h0zm-24.26-1.76h-7.38l.05-8.95h7.38c.88-2.3 2.5-4.57 4.8-6.64l-5.2-3.04 10.98-6.32 5.2 3.04c3.6-1.34 7.52-2.26 11.53-2.77v-4.3h15.5v4.3c4 .5 7.84 1.43 11.44 2.77l5.26-3.04 10.88 6.32-5.2 3.04c2.26 2.08 3.83 4.34 4.7 6.64h7.38l-.05 8.95h-7.38c-.92 2.35-2.5 4.6-4.8 6.7l5.2 3.04-10.98 6.32-5.2-3.04c-3.6 1.34-7.47 2.26-11.53 2.77v4.3h-15.5l.05-4.3c-4-.5-7.93-1.43-11.48-2.77l-5.2 3.04-10.93-6.32 5.2-3.04c-2.22-2.07-3.83-4.34-4.7-6.7h0z" class="L"/><g fill="#d87727"><path d="M457.08 490.06l5.2 3.03.04 15.4-5.18-3.03-.05-15.4m65.63 3.04l5.38-3.03.1 15.4-5.42 3.03-.05-15.4"/><path d="M507.63 519.06h0v-.18c0-.1-.05-.14-.05-.23h0c0-.05 0-.1-.05-.18h0c0-.1-.05-.14-.05-.23h0c0-.05-.05-.14-.05-.18h0c-.05-.1-.05-.18-.1-.23h0c0-.1-.05-.14-.05-.18h0c-.05-.1-.1-.18-.14-.23h0c0-.05-.05-.14-.05-.18h0c-.05-.1-.1-.18-.14-.23h0c-.05-.1-.1-.14-.1-.18h0c-.05-.1-.14-.18-.18-.28h0c-.05-.05-.05-.1-.1-.14h0c-.1-.14-.14-.23-.23-.32h0c0-.05-.05-.1-.1-.14h0c-.1-.14-.23-.28-.37-.46h0c-.05 0-.1-.05-.14-.1h0a.98.98 0 0 0-.32-.32h0c-.1-.05-.14-.14-.18-.18h0c-.05-.05-.14-.14-.23-.18h0c-.05-.05-.14-.1-.18-.14h0c-.05-.1-.14-.14-.23-.23h0c-.1-.05-.18-.1-.23-.18h0l-.28-.14c-.05-.05-.14-.14-.23-.18h0c-.05-.05-.18-.14-.28-.14h0a1.49 1.49 0 0 0-.32-.23h0c-.23-.14-.46-.28-.74-.37h0c-.05-.05-.1-.1-.18-.1h0c-.18-.14-.37-.23-.55-.28h0a.34.34 0 0 0-.18-.09h0l-.78-.32c-.05 0-.05-.05-.14-.05h0c-.18-.1-.42-.14-.6-.23h0c-.14-.05-.23-.05-.32-.1h0c-.1-.05-.23-.1-.37-.1h0c-.1-.05-.18-.05-.28-.1h0c-.14-.05-.28-.1-.37-.1h0c-.14-.05-.23-.05-.37-.1h0c-.1-.05-.23-.05-.37-.1h0c-.1 0-.18-.05-.32-.1h0c-.14 0-.28-.05-.37-.05h0c-.14 0-.23-.05-.32-.1h0c-.28-.05-.55-.05-.88-.1h0s-.1 0-.1-.05h0c-.23-.05-.5-.05-.78-.1h0-.28c-.18 0-.32-.05-.46-.05h0c-.1-.05-.23-.05-.32-.05h0-.5c-.1 0-.18-.05-.28-.05h0-1.52l-1.43.1h-.05l-1.43.18h-.14c-.18.05-.37.05-.6.1h0c-.1 0-.18.05-.23.05h0c-.18.05-.32.05-.46.1h0c-.1 0-.18.05-.28.05h0c-.14.05-.32.1-.5.14h0c-.1.05-.18.05-.28.05h0l-.46.14c-.1.05-.18.05-.28.05h0l-.7.28h-.14l-.78.28c-.05.05-.1.1-.18.1h0l-.97.4c-.05.05-.1.05-.1.05h0l-1.02.55c-3 1.7-4.48 3.96-4.48 6.22l-.05-15.48c0-2.26 1.48-4.5 4.48-6.27h0l.97-.5c.1 0 .1 0 .14-.05h0l.97-.4c.05 0 .05-.05.1-.05h0c.05 0 .05 0 .1-.05h0l.78-.28c.05 0 .1 0 .14-.05h0c.23-.1.46-.14.74-.23h.1c.05-.05.1-.05.14-.05h0l.46-.14c.1 0 .18-.05.28-.1h0a1.48 1.48 0 0 0 .5-.1h0c.1 0 .14-.05.18-.05h.05c.18-.05.32-.05.46-.1h0c.14 0 .18 0 .28-.05h0a2.49 2.49 0 0 1 .6-.09h.14c.5-.1.97-.14 1.48-.18h0l1.43-.1h1.8c.18.05.32.05.5.05h.32c.14.05.32.05.5.1h.23l.78.1c.05 0 .05 0 .14.05h0c.28 0 .55.05.83.14h.1c.05 0 .14 0 .23.05h0c.1 0 .23.05.37.05h0c.14.05.23.05.32.1h0c.14 0 .28.05.37.1h0c.14.05.23.05.37.05h0c.1.05.23.1.37.14h0c.1 0 .18.05.28.05h0l.37.14c.05 0 .14.05.18.05h0s.1 0 .1.05h0l.37.14-.05-12.76.05-4.28.05 15.48-.05 1.57c.14.05.23.05.28.1h0c.05 0 .14.05.14.05h0l.78.32a.3.3 0 0 1 .18.1h0c.18.05.37.14.55.23h0c.1.05.14.1.23.1h0c.23.14.46.23.65.37h0c.1.1.18.1.23.14h0c.05.05.1.1.14.1h0c.1.05.18.1.28.18h0c.1.05.14.14.23.14h0c.1.1.23.14.28.18h0c.1.05.14.14.23.18h0c.1.1.18.14.23.18h0l.18.18c.1.05.18.1.28.18h0c0 .05.05.1.05.1h0c.05 0 .05.05.1.05h0c.1.1.23.23.32.37h0c.05 0 .1.1.1.1h0c.14.18.28.32.42.46h0v.05c.05 0 .05.05.1.1h0a.85.85 0 0 1 .23.32h0c.05.05.1.05.1.14h0c.05.1.1.18.18.23h0c0 .05 0 .1.05.1h0c0 .05 0 .1.05.1h0c.05.1.1.18.1.23h0l.14.23c0 .1.05.14.05.18h0c.05.05.05.1.1.14h0v.1c.05.05.05.14.1.18h0c0 .1.05.14.05.23h0c0 .05.05.14.05.23h0s.05.05.05.1h0v.1a.4.4 0 0 1 .05.23h0v.18c.05.1.05.18.05.23h0v.28l.05 15.2c-.03-.07-.07-.16-.07-.25m-57.43-10.6h7.37c.14.28.23.55.32.83h0c.05 0 .05.05.05.1h0l.4.74c0 .1.05.1.05.14h0l.46.78.46.74c.1.05.1.14.18.18h0c.14.23.28.46.5.7h0c.05.1.1.14.1.18h0l.5.55c.1.1.14.18.23.23h0c.14.23.32.4.55.6h0c.05.05.05.1.1.14h0l.83.74v6.12l5.62 3.27 5.25-3.04c.55.23 1.15.4 1.75.6h0l.55.18.92.28.55.14 1 .28.6.14 1.1.28c.14 0 .28.05.46.1h0c.5.14 1 .18 1.57.32h0l.97.14c.18.05.32.05.5.1h0l1.48.23v4.24h15.44l.05-4.24 1.1-.18 1.06-.14.6-.14c.37-.05.78-.14 1.2-.23h0c.14-.05.28-.05.4-.1h0l1.7-.37c.14 0 .28-.1.46-.1h0c.4-.14.78-.23 1.2-.32h0c.18-.05.37-.14.6-.18h0l1.06-.32c.18-.05.37-.1.5-.18h0l1.57-.5 5.2 3.04 5.76-3.36v-6.03c1.7-1.57 3.04-3.18 3.96-4.88h0l.83-1.75h7.38l.05-8.98.05 15.52-.05 8.93h-7l.05 9.67-10.97 6.35-5.2-3.04-1.57.55c-.14.05-.32.1-.5.14h0l-1.1.37c-.1 0-.18.05-.28.1h0a.66.66 0 0 0-.28.05h0c-.37.14-.78.23-1.24.32h0l-.46.14-1.7.37s0 .05-.05.05h0c-.1 0-.18 0-.32.05h0c-.4.05-.78.14-1.24.23h0c-.18 0-.37.05-.55.1h0l-1.1.14c-.1.05-.18.05-.28.05h0l-.78.14-.05 4.28h-15.5v-4.28l-1.43-.23c-.18 0-.32-.05-.5-.05h0l-.92-.18h-.05l-1.57-.32c-.18 0-.32-.1-.46-.1h0l-1.15-.23-.55-.18c-.32-.1-.65-.14-1-.23h0c-.14-.1-.37-.1-.55-.18h0l-.97-.28c-.1-.05-.23-.1-.32-.1h0c-.1-.05-.14-.1-.23-.1h0l-1.7-.6-5.25 3.04-10.88-6.35-.05-9.67h-6.82l-.03-15.52"/></g><path fill="#ec9f55" d="M481.83 510.27h0c5.9 3.4 15.5 3.4 21.4 0h0c5.9-3.4 6-8.93.05-12.38h0c-5.86-3.4-15.45-3.4-21.35 0h0c-5.9 3.45-5.96 8.97-.1 12.38h0zm-24.2-1.7h-7.38l.05-8.97h7.43c.88-2.3 2.44-4.56 4.75-6.58l-5.2-3.04 10.98-6.35 5.2 3.04c3.6-1.33 7.47-2.25 11.53-2.76v-4.28h15.5l-.05 4.28c4 .5 7.93 1.43 11.48 2.76l5.26-3.04 10.88 6.35-5.26 3.04c2.3 2.02 3.87 4.28 4.75 6.58h7.38l-.05 8.97h-7.38c-.88 2.3-2.5 4.6-4.8 6.63l5.2 3.04-10.98 6.35-5.2-3.04c-3.6 1.33-7.52 2.25-11.48 2.76l-.05 4.23h-15.5l.05-4.23c-4-.5-7.9-1.43-11.48-2.76L468 524.6l-10.88-6.35 5.26-3.04c-2.3-2.03-3.87-4.33-4.75-6.63h0z"/><path fill="#f0d065" d="M196.87 221.38h0c0 42.36-6.13 84.3-18.06 124.5h0c-11.9 40.24-29.58 78.63-52.62 114.17L112.6 481a129.93 129.93 0 0 1-32.16-17.88h0a131.98 131.98 0 0 1-29.03-30.47h0c-14.75-21.43-23.1-47.2-23.1-74.44v-39.45c25.25 4.84 50.73-6.82 63.6-29.08l20.7-35.8c8.7 4.98 18.2 7.42 27.65 7.42h0c17.7 0 35.02-8.48 45.7-24l10.9-15.9"/><path fill="#e7b821" d="M196.75 221.52l-10.93 15.9c-10.7 15.48-28.03 23.96-45.73 23.96h0a55.17 55.17 0 0 1-27.66-7.42l-20.7 35.85c-12.86 22.2-38.4 33.86-63.66 29.03l.05 39.44c0 27.23 8.34 53.03 23.1 74.46h0c7.93 11.56 17.75 21.84 29.04 30.4h0C31.76 442.6 0 395.04 0 342.1v-39.5c25.26 4.84 50.8-6.82 63.62-29.03l20.7-35.85c25.08 14.47 57.03 7.23 73.44-16.6l10.88-15.85 28.1 16.23"/><path d="M98.07 410.7h0a99.45 99.45 0 0 0-24.27-21h0c.05-.05.1-.14.14-.23h0c9.1 5.57 17.2 12.8 24.13 21.23h0zm14.58-29.48h0v-.05c.32-1.75 14.5-90.54 56.3-113.47l18.46 10.64-18.46-10.64c-42.22 23.2-56.3 113.52-56.3 113.52h0zM95.4 351.18h0c3.82-16.4 11-41.34 22.56-62.3h0c-11.55 20.96-18.74 45.85-22.56 62.3h0zm22.6-62.35h0s0-.05.05-.1h0c-.05.04-.05.1-.05.1h0zm72.02-9l-42.1-24.38 42.1 24.38z" fill="#94c86a"/><path fill="#0ea84b" d="M94.2 356.22h0l1.15-5.1-1.15 5.1zm23.73-67.37h0l.05-.05-.05.05zm.1-.14h0c7.8-14.14 17.65-26.48 29.86-33.25h0c-12.2 6.77-22.07 19.1-29.86 33.25h0zm72-8.84l-.05-.05h.05v.05z"/><path d="M61.27 383.1h0c-.1-.05-.1-.05-.14-.05h0l-4.6-1.7.55-1.34c2.44-6.22 6.1-12.26 11.4-18.03h0c3.14-3.18 7.1-6.7 12.08-10.28h0c1.06-.78 2.2-1.57 3.4-2.4h0c.18-.14.46-.28.65-.42h0c1.8 1.15 3.46 2.4 5.12 3.64h0a92.26 92.26 0 0 1 4.52 3.83h0l-.05.05h.05c7.7 6.92 13.84 15.26 18.5 24.94h0v-.05.05S126.8 290.92 169 267.68l18.45 10.65 2.67 1.52.05.05 20.98 12.13c-35.14 13.6-70.98 73.5-94 151.65h0c-1.25-3.14-2.58-6.22-4.06-9.22h0c-3.5-7.33-7.43-13.83-11.76-19.6h0a156.12 156.12 0 0 0-3.18-4.01h0c-6.92-8.44-15.03-15.68-24.12-21.26h0a85.41 85.41 0 0 0-12.76-6.48h0zM90.7 367h0c.37.7.7 1.43 1.06 2.12h0L90.7 367zm-34.17 14.34h0z" class="J"/><g fill="#75bb43"><path d="M94.25 356.46h0-.05l.05-.05v.05zM190.03 280l-.05-.05.05.05z"/><path d="M112.68 381.42h0c-4.66-9.67-10.8-18-18.48-24.92h0v-.05c7.7 6.96 13.83 15.3 18.48 24.92h0v.05zm77.35-101.4l-2.67-1.52 2.67 1.52z"/></g><path d="M88.12 414.1c3.13 5.43 5.85 11.14 8.15 17.08h.05c-2.35-5.94-5.07-11.65-8.2-17.08h0zM61 383.08c.05 0 .1 0 .14.05 2.5 2.03 4.97 4.15 7.33 6.4L61 383.08zm.4-.2h.05l11.14 5.93 1.37.7-.01.02.12.07C83 395.13 91.1 402 98.3 410.55c1.1 1.34 2.16 2.67 3.13 4.05 4.5 6.03 8.43 12.57 11.8 19.53a122.81 122.81 0 0 1 4.01 9.26l-20.96-12.16c-5.48-13.35-11.75-23.85-18.56-32.33-1.7-2.12-3.45-4.1-5.2-6-1.24-1.24-2.4-2.5-3.68-3.64l-6.68-5.77-.94-.5.88.45-.7-.57zm-4.55-2.94c.1.05.14.1.23.14-.23.46-.37.92-.55 1.34 0-.05.1-.56.32-1.48h0zm7-43.18l20.68 12.02-.65.4c-1.2.78-2.35 1.52-3.5 2.35-4.7-5.62-10.24-10.5-16.52-14.78h0zm-.4 0l.01.01.01-.01-.01.01.3.18c3.13 2.15 6.08 4.44 8.83 6.9l7.6 7.86.15-.12s.05.05.1.05a104.4 104.4 0 0 0-6.73 5.29l-2.77 2.58-2.68 2.58-3.7 4.3-3.03 4.4a55.49 55.49 0 0 0-4.59 9.19c-.1-.05-.14-.1-.23-.14l.97-2.67c-.5 1.15-.82 2.1-1.02 2.8h-.01l-.2.8-.08.4-19.53-11.3-1.47-.6.06-.2-.01-.01-.05.16v-.05l.02-.13-.02-.01.02.01.08-.4c.23-1.07.96-3.66 3.03-7.3-.74 1.34-1.37 2.65-1.9 3.96l-1.2 3.75v.01l1.17-3.72c.52-1.3 1.16-2.62 1.9-3.96l1.2-2-1.2 1.76c1.06-1.93 2.54-4.2 4.57-6.68l-1.6 2.35 1.6-2.14c2.37-2.93 5.25-5.88 8.64-8.87l2.38-1.96-2.37 1.95c-3.4 2.98-6.27 5.93-8.65 8.86 3.1-3.9 7.5-8.35 13.63-13.1l5.86-4.2.9-.6zm84.36-81.3l42.16 24.37h-.05l-2.67-1.52-18.43-10.64c-41.75 22.95-55.9 111.78-56.22 113.53-4.65-9.63-10.78-17.97-18.48-24.93.32-1.57.74-3.32 1.15-5.1 3.82-16.45 11-41.33 22.58-62.3l.05-.05s0-.05.05-.1c7.78-14.14 17.65-26.5 29.86-33.27h0z" class="K"/></g></svg>